G04 EAGLE Gerber RS-274X export*
G75*
%MOMM*%
%FSLAX34Y34*%
%LPD*%
%INCopper Layer 2*%
%IPPOS*%
%AMOC8*
5,1,8,0,0,1.08239X$1,22.5*%
G01*
%ADD10C,1.530000*%
%ADD11C,1.397000*%
%ADD12C,4.191000*%
%ADD13C,0.756400*%

G36*
X1106088Y289576D02*
X1106088Y289576D01*
X1106207Y289583D01*
X1106245Y289596D01*
X1106286Y289601D01*
X1106396Y289644D01*
X1106509Y289681D01*
X1106544Y289703D01*
X1106581Y289718D01*
X1106677Y289787D01*
X1106778Y289851D01*
X1106806Y289881D01*
X1106839Y289904D01*
X1106915Y289996D01*
X1106996Y290083D01*
X1107016Y290118D01*
X1107041Y290149D01*
X1107092Y290257D01*
X1107150Y290361D01*
X1107160Y290401D01*
X1107177Y290437D01*
X1107199Y290554D01*
X1107229Y290669D01*
X1107233Y290729D01*
X1107237Y290749D01*
X1107235Y290770D01*
X1107239Y290830D01*
X1107239Y836170D01*
X1107224Y836288D01*
X1107217Y836407D01*
X1107204Y836445D01*
X1107199Y836486D01*
X1107156Y836596D01*
X1107119Y836709D01*
X1107097Y836744D01*
X1107082Y836781D01*
X1107013Y836877D01*
X1106949Y836978D01*
X1106919Y837006D01*
X1106896Y837039D01*
X1106804Y837115D01*
X1106717Y837196D01*
X1106682Y837216D01*
X1106651Y837241D01*
X1106543Y837292D01*
X1106439Y837350D01*
X1106399Y837360D01*
X1106363Y837377D01*
X1106246Y837399D01*
X1106131Y837429D01*
X1106071Y837433D01*
X1106051Y837437D01*
X1106030Y837435D01*
X1105970Y837439D01*
X1072439Y837439D01*
X1072370Y837431D01*
X1072300Y837432D01*
X1072212Y837411D01*
X1072123Y837399D01*
X1072059Y837374D01*
X1071991Y837357D01*
X1071911Y837315D01*
X1071828Y837282D01*
X1071771Y837241D01*
X1071709Y837209D01*
X1071643Y837148D01*
X1071570Y837096D01*
X1071526Y837042D01*
X1071474Y836995D01*
X1071425Y836920D01*
X1071367Y836851D01*
X1071338Y836787D01*
X1071299Y836729D01*
X1071270Y836644D01*
X1071232Y836563D01*
X1071219Y836494D01*
X1071196Y836428D01*
X1071189Y836339D01*
X1071172Y836251D01*
X1071176Y836181D01*
X1071171Y836111D01*
X1071186Y836023D01*
X1071192Y835933D01*
X1071213Y835867D01*
X1071225Y835798D01*
X1071262Y835716D01*
X1071290Y835631D01*
X1071327Y835572D01*
X1071356Y835508D01*
X1071412Y835438D01*
X1071460Y835362D01*
X1071511Y835314D01*
X1071554Y835260D01*
X1071626Y835205D01*
X1071692Y835144D01*
X1071753Y835110D01*
X1071809Y835068D01*
X1071953Y834997D01*
X1079534Y831857D01*
X1085857Y825534D01*
X1089280Y817272D01*
X1089280Y808328D01*
X1085857Y800066D01*
X1079534Y793743D01*
X1071272Y790320D01*
X1062328Y790320D01*
X1054066Y793743D01*
X1047743Y800066D01*
X1044320Y808328D01*
X1044320Y817272D01*
X1047743Y825534D01*
X1054066Y831857D01*
X1061647Y834997D01*
X1061708Y835032D01*
X1061772Y835058D01*
X1061845Y835110D01*
X1061923Y835155D01*
X1061973Y835203D01*
X1062030Y835244D01*
X1062087Y835314D01*
X1062152Y835376D01*
X1062188Y835436D01*
X1062233Y835489D01*
X1062271Y835571D01*
X1062318Y835647D01*
X1062338Y835714D01*
X1062368Y835777D01*
X1062385Y835865D01*
X1062411Y835951D01*
X1062415Y836021D01*
X1062428Y836090D01*
X1062422Y836179D01*
X1062427Y836269D01*
X1062412Y836337D01*
X1062408Y836407D01*
X1062380Y836492D01*
X1062362Y836580D01*
X1062332Y836643D01*
X1062310Y836709D01*
X1062262Y836785D01*
X1062223Y836866D01*
X1062177Y836919D01*
X1062140Y836978D01*
X1062075Y837040D01*
X1062016Y837108D01*
X1061959Y837148D01*
X1061908Y837196D01*
X1061830Y837239D01*
X1061756Y837291D01*
X1061691Y837316D01*
X1061630Y837350D01*
X1061543Y837372D01*
X1061459Y837404D01*
X1061389Y837412D01*
X1061322Y837429D01*
X1061161Y837439D01*
X335839Y837439D01*
X335770Y837431D01*
X335700Y837432D01*
X335612Y837411D01*
X335523Y837399D01*
X335459Y837374D01*
X335391Y837357D01*
X335311Y837315D01*
X335228Y837282D01*
X335171Y837241D01*
X335109Y837209D01*
X335043Y837148D01*
X334970Y837096D01*
X334926Y837042D01*
X334874Y836995D01*
X334825Y836920D01*
X334767Y836851D01*
X334738Y836787D01*
X334699Y836729D01*
X334670Y836644D01*
X334632Y836563D01*
X334619Y836494D01*
X334596Y836428D01*
X334589Y836339D01*
X334572Y836251D01*
X334576Y836181D01*
X334571Y836111D01*
X334586Y836023D01*
X334592Y835933D01*
X334613Y835867D01*
X334625Y835798D01*
X334662Y835716D01*
X334690Y835631D01*
X334727Y835572D01*
X334756Y835508D01*
X334812Y835438D01*
X334860Y835362D01*
X334911Y835314D01*
X334954Y835260D01*
X335026Y835205D01*
X335092Y835144D01*
X335153Y835110D01*
X335209Y835068D01*
X335353Y834997D01*
X342934Y831857D01*
X349257Y825534D01*
X352680Y817272D01*
X352680Y808328D01*
X349257Y800066D01*
X342934Y793743D01*
X334672Y790320D01*
X325728Y790320D01*
X317466Y793743D01*
X311143Y800066D01*
X307720Y808328D01*
X307720Y817272D01*
X311143Y825534D01*
X317466Y831857D01*
X325047Y834997D01*
X325108Y835032D01*
X325172Y835058D01*
X325245Y835110D01*
X325323Y835155D01*
X325373Y835203D01*
X325430Y835244D01*
X325487Y835314D01*
X325552Y835376D01*
X325588Y835436D01*
X325633Y835489D01*
X325671Y835571D01*
X325718Y835647D01*
X325738Y835714D01*
X325768Y835777D01*
X325785Y835865D01*
X325811Y835951D01*
X325815Y836021D01*
X325828Y836090D01*
X325822Y836179D01*
X325827Y836269D01*
X325812Y836337D01*
X325808Y836407D01*
X325780Y836492D01*
X325762Y836580D01*
X325732Y836643D01*
X325710Y836709D01*
X325662Y836785D01*
X325623Y836866D01*
X325577Y836919D01*
X325540Y836978D01*
X325475Y837040D01*
X325416Y837108D01*
X325359Y837148D01*
X325308Y837196D01*
X325230Y837239D01*
X325156Y837291D01*
X325091Y837316D01*
X325030Y837350D01*
X324943Y837372D01*
X324859Y837404D01*
X324789Y837412D01*
X324722Y837429D01*
X324561Y837439D01*
X290830Y837439D01*
X290712Y837424D01*
X290593Y837417D01*
X290555Y837404D01*
X290514Y837399D01*
X290404Y837356D01*
X290291Y837319D01*
X290256Y837297D01*
X290219Y837282D01*
X290123Y837213D01*
X290022Y837149D01*
X289994Y837119D01*
X289961Y837096D01*
X289885Y837004D01*
X289804Y836917D01*
X289784Y836882D01*
X289759Y836851D01*
X289708Y836743D01*
X289650Y836639D01*
X289640Y836599D01*
X289623Y836563D01*
X289601Y836446D01*
X289571Y836331D01*
X289567Y836271D01*
X289563Y836251D01*
X289565Y836230D01*
X289561Y836170D01*
X289561Y290830D01*
X289576Y290712D01*
X289583Y290593D01*
X289596Y290555D01*
X289601Y290514D01*
X289644Y290404D01*
X289681Y290291D01*
X289703Y290256D01*
X289718Y290219D01*
X289787Y290123D01*
X289851Y290022D01*
X289881Y289994D01*
X289904Y289961D01*
X289996Y289885D01*
X290083Y289804D01*
X290118Y289784D01*
X290149Y289759D01*
X290257Y289708D01*
X290361Y289650D01*
X290401Y289640D01*
X290437Y289623D01*
X290554Y289601D01*
X290669Y289571D01*
X290729Y289567D01*
X290749Y289563D01*
X290770Y289565D01*
X290830Y289561D01*
X1105970Y289561D01*
X1106088Y289576D01*
G37*
%LPC*%
G36*
X1062328Y295020D02*
X1062328Y295020D01*
X1054066Y298443D01*
X1047743Y304766D01*
X1044320Y313028D01*
X1044320Y321972D01*
X1047743Y330234D01*
X1054066Y336557D01*
X1062328Y339980D01*
X1071272Y339980D01*
X1079534Y336557D01*
X1085857Y330234D01*
X1089280Y321972D01*
X1089280Y313028D01*
X1085857Y304766D01*
X1079534Y298443D01*
X1071272Y295020D01*
X1062328Y295020D01*
G37*
%LPD*%
%LPC*%
G36*
X325728Y307720D02*
X325728Y307720D01*
X317466Y311143D01*
X311143Y317466D01*
X307720Y325728D01*
X307720Y334672D01*
X311143Y342934D01*
X317466Y349257D01*
X325728Y352680D01*
X334672Y352680D01*
X342934Y349257D01*
X349257Y342934D01*
X352680Y334672D01*
X352680Y325728D01*
X349257Y317466D01*
X342934Y311143D01*
X334672Y307720D01*
X325728Y307720D01*
G37*
%LPD*%
%LPC*%
G36*
X506175Y536925D02*
X506175Y536925D01*
X502803Y538322D01*
X500222Y540903D01*
X498825Y544275D01*
X498825Y547925D01*
X500222Y551297D01*
X502803Y553878D01*
X506175Y555275D01*
X509825Y555275D01*
X513197Y553878D01*
X515778Y551297D01*
X517175Y547925D01*
X517175Y544275D01*
X515778Y540903D01*
X513197Y538322D01*
X509825Y536925D01*
X506175Y536925D01*
G37*
%LPD*%
%LPC*%
G36*
X506175Y562325D02*
X506175Y562325D01*
X502803Y563722D01*
X500222Y566303D01*
X498825Y569675D01*
X498825Y573325D01*
X500222Y576697D01*
X502803Y579278D01*
X506175Y580675D01*
X509825Y580675D01*
X513197Y579278D01*
X515778Y576697D01*
X517175Y573325D01*
X517175Y569675D01*
X515778Y566303D01*
X513197Y563722D01*
X509825Y562325D01*
X506175Y562325D01*
G37*
%LPD*%
%LPC*%
G36*
X506175Y587725D02*
X506175Y587725D01*
X502803Y589122D01*
X500222Y591703D01*
X498825Y595075D01*
X498825Y598725D01*
X500222Y602097D01*
X502803Y604678D01*
X506175Y606075D01*
X509825Y606075D01*
X513197Y604678D01*
X515778Y602097D01*
X517175Y598725D01*
X517175Y595075D01*
X515778Y591703D01*
X513197Y589122D01*
X509825Y587725D01*
X506175Y587725D01*
G37*
%LPD*%
%LPC*%
G36*
X701207Y654690D02*
X701207Y654690D01*
X698080Y655986D01*
X695686Y658380D01*
X694390Y661507D01*
X694390Y664893D01*
X695686Y668020D01*
X698080Y670414D01*
X701207Y671710D01*
X704593Y671710D01*
X707720Y670414D01*
X710114Y668020D01*
X711410Y664893D01*
X711410Y661507D01*
X710114Y658380D01*
X707720Y655986D01*
X704593Y654690D01*
X701207Y654690D01*
G37*
%LPD*%
%LPC*%
G36*
X734907Y321690D02*
X734907Y321690D01*
X731780Y322986D01*
X729386Y325380D01*
X728090Y328507D01*
X728090Y331893D01*
X729386Y335020D01*
X731780Y337414D01*
X734907Y338710D01*
X738293Y338710D01*
X741420Y337414D01*
X743814Y335020D01*
X745110Y331893D01*
X745110Y328507D01*
X743814Y325380D01*
X741420Y322986D01*
X738293Y321690D01*
X734907Y321690D01*
G37*
%LPD*%
%LPC*%
G36*
X633307Y321690D02*
X633307Y321690D01*
X630180Y322986D01*
X627786Y325380D01*
X626490Y328507D01*
X626490Y331893D01*
X627786Y335020D01*
X630180Y337414D01*
X633307Y338710D01*
X636693Y338710D01*
X639820Y337414D01*
X642214Y335020D01*
X643510Y331893D01*
X643510Y328507D01*
X642214Y325380D01*
X639820Y322986D01*
X636693Y321690D01*
X633307Y321690D01*
G37*
%LPD*%
%LPC*%
G36*
X633307Y753490D02*
X633307Y753490D01*
X630180Y754786D01*
X627786Y757180D01*
X626490Y760307D01*
X626490Y763693D01*
X627786Y766820D01*
X630180Y769214D01*
X633307Y770510D01*
X636693Y770510D01*
X639820Y769214D01*
X642214Y766820D01*
X643510Y763693D01*
X643510Y760307D01*
X642214Y757180D01*
X639820Y754786D01*
X636693Y753490D01*
X633307Y753490D01*
G37*
%LPD*%
%LPC*%
G36*
X607907Y753490D02*
X607907Y753490D01*
X604780Y754786D01*
X602386Y757180D01*
X601090Y760307D01*
X601090Y763693D01*
X602386Y766820D01*
X604780Y769214D01*
X607907Y770510D01*
X611293Y770510D01*
X614420Y769214D01*
X616814Y766820D01*
X618110Y763693D01*
X618110Y760307D01*
X616814Y757180D01*
X614420Y754786D01*
X611293Y753490D01*
X607907Y753490D01*
G37*
%LPD*%
%LPC*%
G36*
X938107Y753490D02*
X938107Y753490D01*
X934980Y754786D01*
X932586Y757180D01*
X931290Y760307D01*
X931290Y763693D01*
X932586Y766820D01*
X934980Y769214D01*
X938107Y770510D01*
X941493Y770510D01*
X944620Y769214D01*
X947014Y766820D01*
X948310Y763693D01*
X948310Y760307D01*
X947014Y757180D01*
X944620Y754786D01*
X941493Y753490D01*
X938107Y753490D01*
G37*
%LPD*%
%LPC*%
G36*
X912707Y753490D02*
X912707Y753490D01*
X909580Y754786D01*
X907186Y757180D01*
X905890Y760307D01*
X905890Y763693D01*
X907186Y766820D01*
X909580Y769214D01*
X912707Y770510D01*
X916093Y770510D01*
X919220Y769214D01*
X921614Y766820D01*
X922910Y763693D01*
X922910Y760307D01*
X921614Y757180D01*
X919220Y754786D01*
X916093Y753490D01*
X912707Y753490D01*
G37*
%LPD*%
%LPC*%
G36*
X836507Y753490D02*
X836507Y753490D01*
X833380Y754786D01*
X830986Y757180D01*
X829690Y760307D01*
X829690Y763693D01*
X830986Y766820D01*
X833380Y769214D01*
X836507Y770510D01*
X839893Y770510D01*
X843020Y769214D01*
X845414Y766820D01*
X846710Y763693D01*
X846710Y760307D01*
X845414Y757180D01*
X843020Y754786D01*
X839893Y753490D01*
X836507Y753490D01*
G37*
%LPD*%
%LPC*%
G36*
X811107Y753490D02*
X811107Y753490D01*
X807980Y754786D01*
X805586Y757180D01*
X804290Y760307D01*
X804290Y763693D01*
X805586Y766820D01*
X807980Y769214D01*
X811107Y770510D01*
X814493Y770510D01*
X817620Y769214D01*
X820014Y766820D01*
X821310Y763693D01*
X821310Y760307D01*
X820014Y757180D01*
X817620Y754786D01*
X814493Y753490D01*
X811107Y753490D01*
G37*
%LPD*%
%LPC*%
G36*
X734907Y753490D02*
X734907Y753490D01*
X731780Y754786D01*
X729386Y757180D01*
X728090Y760307D01*
X728090Y763693D01*
X729386Y766820D01*
X731780Y769214D01*
X734907Y770510D01*
X738293Y770510D01*
X741420Y769214D01*
X743814Y766820D01*
X745110Y763693D01*
X745110Y760307D01*
X743814Y757180D01*
X741420Y754786D01*
X738293Y753490D01*
X734907Y753490D01*
G37*
%LPD*%
%LPC*%
G36*
X709507Y753490D02*
X709507Y753490D01*
X706380Y754786D01*
X703986Y757180D01*
X702690Y760307D01*
X702690Y763693D01*
X703986Y766820D01*
X706380Y769214D01*
X709507Y770510D01*
X712893Y770510D01*
X716020Y769214D01*
X718414Y766820D01*
X719710Y763693D01*
X719710Y760307D01*
X718414Y757180D01*
X716020Y754786D01*
X712893Y753490D01*
X709507Y753490D01*
G37*
%LPD*%
%LPC*%
G36*
X811107Y321690D02*
X811107Y321690D01*
X807980Y322986D01*
X805586Y325380D01*
X804290Y328507D01*
X804290Y331893D01*
X805586Y335020D01*
X807980Y337414D01*
X811107Y338710D01*
X814493Y338710D01*
X817620Y337414D01*
X820014Y335020D01*
X821310Y331893D01*
X821310Y328507D01*
X820014Y325380D01*
X817620Y322986D01*
X814493Y321690D01*
X811107Y321690D01*
G37*
%LPD*%
%LPC*%
G36*
X836507Y321690D02*
X836507Y321690D01*
X833380Y322986D01*
X830986Y325380D01*
X829690Y328507D01*
X829690Y331893D01*
X830986Y335020D01*
X833380Y337414D01*
X836507Y338710D01*
X839893Y338710D01*
X843020Y337414D01*
X845414Y335020D01*
X846710Y331893D01*
X846710Y328507D01*
X845414Y325380D01*
X843020Y322986D01*
X839893Y321690D01*
X836507Y321690D01*
G37*
%LPD*%
%LPC*%
G36*
X912707Y321690D02*
X912707Y321690D01*
X909580Y322986D01*
X907186Y325380D01*
X905890Y328507D01*
X905890Y331893D01*
X907186Y335020D01*
X909580Y337414D01*
X912707Y338710D01*
X916093Y338710D01*
X919220Y337414D01*
X921614Y335020D01*
X922910Y331893D01*
X922910Y328507D01*
X921614Y325380D01*
X919220Y322986D01*
X916093Y321690D01*
X912707Y321690D01*
G37*
%LPD*%
%LPC*%
G36*
X938107Y321690D02*
X938107Y321690D01*
X934980Y322986D01*
X932586Y325380D01*
X931290Y328507D01*
X931290Y331893D01*
X932586Y335020D01*
X934980Y337414D01*
X938107Y338710D01*
X941493Y338710D01*
X944620Y337414D01*
X947014Y335020D01*
X948310Y331893D01*
X948310Y328507D01*
X947014Y325380D01*
X944620Y322986D01*
X941493Y321690D01*
X938107Y321690D01*
G37*
%LPD*%
%LPC*%
G36*
X607907Y321690D02*
X607907Y321690D01*
X604780Y322986D01*
X602386Y325380D01*
X601090Y328507D01*
X601090Y331893D01*
X602386Y335020D01*
X604780Y337414D01*
X607907Y338710D01*
X611293Y338710D01*
X614420Y337414D01*
X616814Y335020D01*
X618110Y331893D01*
X618110Y328507D01*
X616814Y325380D01*
X614420Y322986D01*
X611293Y321690D01*
X607907Y321690D01*
G37*
%LPD*%
%LPC*%
G36*
X1031407Y426090D02*
X1031407Y426090D01*
X1028280Y427386D01*
X1025886Y429780D01*
X1024590Y432907D01*
X1024590Y436293D01*
X1025886Y439420D01*
X1028280Y441814D01*
X1031407Y443110D01*
X1034793Y443110D01*
X1037920Y441814D01*
X1040314Y439420D01*
X1041610Y436293D01*
X1041610Y432907D01*
X1040314Y429780D01*
X1037920Y427386D01*
X1034793Y426090D01*
X1031407Y426090D01*
G37*
%LPD*%
%LPC*%
G36*
X1006007Y426090D02*
X1006007Y426090D01*
X1002880Y427386D01*
X1000486Y429780D01*
X999190Y432907D01*
X999190Y436293D01*
X1000486Y439420D01*
X1002880Y441814D01*
X1006007Y443110D01*
X1009393Y443110D01*
X1012520Y441814D01*
X1014914Y439420D01*
X1016210Y436293D01*
X1016210Y432907D01*
X1014914Y429780D01*
X1012520Y427386D01*
X1009393Y426090D01*
X1006007Y426090D01*
G37*
%LPD*%
%LPC*%
G36*
X955207Y426090D02*
X955207Y426090D01*
X952080Y427386D01*
X949686Y429780D01*
X948390Y432907D01*
X948390Y436293D01*
X949686Y439420D01*
X952080Y441814D01*
X955207Y443110D01*
X958593Y443110D01*
X961720Y441814D01*
X964114Y439420D01*
X965410Y436293D01*
X965410Y432907D01*
X964114Y429780D01*
X961720Y427386D01*
X958593Y426090D01*
X955207Y426090D01*
G37*
%LPD*%
%LPC*%
G36*
X726607Y654690D02*
X726607Y654690D01*
X723480Y655986D01*
X721086Y658380D01*
X719790Y661507D01*
X719790Y664893D01*
X721086Y668020D01*
X723480Y670414D01*
X726607Y671710D01*
X729993Y671710D01*
X733120Y670414D01*
X735514Y668020D01*
X736810Y664893D01*
X736810Y661507D01*
X735514Y658380D01*
X733120Y655986D01*
X729993Y654690D01*
X726607Y654690D01*
G37*
%LPD*%
%LPC*%
G36*
X752007Y654690D02*
X752007Y654690D01*
X748880Y655986D01*
X746486Y658380D01*
X745190Y661507D01*
X745190Y664893D01*
X746486Y668020D01*
X748880Y670414D01*
X752007Y671710D01*
X755393Y671710D01*
X758520Y670414D01*
X760914Y668020D01*
X762210Y664893D01*
X762210Y661507D01*
X760914Y658380D01*
X758520Y655986D01*
X755393Y654690D01*
X752007Y654690D01*
G37*
%LPD*%
%LPC*%
G36*
X777407Y654690D02*
X777407Y654690D01*
X774280Y655986D01*
X771886Y658380D01*
X770590Y661507D01*
X770590Y664893D01*
X771886Y668020D01*
X774280Y670414D01*
X777407Y671710D01*
X780793Y671710D01*
X783920Y670414D01*
X786314Y668020D01*
X787610Y664893D01*
X787610Y661507D01*
X786314Y658380D01*
X783920Y655986D01*
X780793Y654690D01*
X777407Y654690D01*
G37*
%LPD*%
%LPC*%
G36*
X709507Y321690D02*
X709507Y321690D01*
X706380Y322986D01*
X703986Y325380D01*
X702690Y328507D01*
X702690Y331893D01*
X703986Y335020D01*
X706380Y337414D01*
X709507Y338710D01*
X712893Y338710D01*
X716020Y337414D01*
X718414Y335020D01*
X719710Y331893D01*
X719710Y328507D01*
X718414Y325380D01*
X716020Y322986D01*
X712893Y321690D01*
X709507Y321690D01*
G37*
%LPD*%
%LPC*%
G36*
X802807Y654690D02*
X802807Y654690D01*
X799680Y655986D01*
X797286Y658380D01*
X795990Y661507D01*
X795990Y664893D01*
X797286Y668020D01*
X799680Y670414D01*
X802807Y671710D01*
X806193Y671710D01*
X809320Y670414D01*
X811714Y668020D01*
X813010Y664893D01*
X813010Y661507D01*
X811714Y658380D01*
X809320Y655986D01*
X806193Y654690D01*
X802807Y654690D01*
G37*
%LPD*%
%LPC*%
G36*
X980607Y654690D02*
X980607Y654690D01*
X977480Y655986D01*
X975086Y658380D01*
X973790Y661507D01*
X973790Y664893D01*
X975086Y668020D01*
X977480Y670414D01*
X980607Y671710D01*
X983993Y671710D01*
X987120Y670414D01*
X989514Y668020D01*
X990810Y664893D01*
X990810Y661507D01*
X989514Y658380D01*
X987120Y655986D01*
X983993Y654690D01*
X980607Y654690D01*
G37*
%LPD*%
%LPC*%
G36*
X955207Y654690D02*
X955207Y654690D01*
X952080Y655986D01*
X949686Y658380D01*
X948390Y661507D01*
X948390Y664893D01*
X949686Y668020D01*
X952080Y670414D01*
X955207Y671710D01*
X958593Y671710D01*
X961720Y670414D01*
X964114Y668020D01*
X965410Y664893D01*
X965410Y661507D01*
X964114Y658380D01*
X961720Y655986D01*
X958593Y654690D01*
X955207Y654690D01*
G37*
%LPD*%
%LPC*%
G36*
X929807Y654690D02*
X929807Y654690D01*
X926680Y655986D01*
X924286Y658380D01*
X922990Y661507D01*
X922990Y664893D01*
X924286Y668020D01*
X926680Y670414D01*
X929807Y671710D01*
X933193Y671710D01*
X936320Y670414D01*
X938714Y668020D01*
X940010Y664893D01*
X940010Y661507D01*
X938714Y658380D01*
X936320Y655986D01*
X933193Y654690D01*
X929807Y654690D01*
G37*
%LPD*%
%LPC*%
G36*
X828207Y654690D02*
X828207Y654690D01*
X825080Y655986D01*
X822686Y658380D01*
X821390Y661507D01*
X821390Y664893D01*
X822686Y668020D01*
X825080Y670414D01*
X828207Y671710D01*
X831593Y671710D01*
X834720Y670414D01*
X837114Y668020D01*
X838410Y664893D01*
X838410Y661507D01*
X837114Y658380D01*
X834720Y655986D01*
X831593Y654690D01*
X828207Y654690D01*
G37*
%LPD*%
%LPC*%
G36*
X506944Y324893D02*
X506944Y324893D01*
X504994Y325701D01*
X503501Y327194D01*
X502693Y329144D01*
X502693Y331256D01*
X503501Y333206D01*
X504994Y334699D01*
X506944Y335507D01*
X509056Y335507D01*
X511006Y334699D01*
X512499Y333206D01*
X513307Y331256D01*
X513307Y329144D01*
X512499Y327194D01*
X511006Y325701D01*
X509056Y324893D01*
X506944Y324893D01*
G37*
%LPD*%
%LPC*%
G36*
X510539Y523239D02*
X510539Y523239D01*
X510539Y530590D01*
X511912Y530144D01*
X513341Y529416D01*
X514639Y528473D01*
X515773Y527339D01*
X516716Y526041D01*
X517444Y524612D01*
X517890Y523239D01*
X510539Y523239D01*
G37*
%LPD*%
%LPC*%
G36*
X498110Y523239D02*
X498110Y523239D01*
X498556Y524612D01*
X499284Y526041D01*
X500227Y527339D01*
X501361Y528473D01*
X502659Y529416D01*
X504088Y530144D01*
X505461Y530590D01*
X505461Y523239D01*
X498110Y523239D01*
G37*
%LPD*%
%LPC*%
G36*
X510539Y518161D02*
X510539Y518161D01*
X517890Y518161D01*
X517444Y516788D01*
X516716Y515359D01*
X515773Y514061D01*
X514639Y512927D01*
X513341Y511984D01*
X511912Y511256D01*
X510539Y510810D01*
X510539Y518161D01*
G37*
%LPD*%
%LPC*%
G36*
X504088Y511256D02*
X504088Y511256D01*
X502659Y511984D01*
X501361Y512927D01*
X500227Y514061D01*
X499284Y515359D01*
X498556Y516788D01*
X498110Y518161D01*
X505461Y518161D01*
X505461Y510810D01*
X504088Y511256D01*
G37*
%LPD*%
%LPC*%
G36*
X847913Y669239D02*
X847913Y669239D01*
X848034Y669406D01*
X849094Y670466D01*
X850307Y671347D01*
X851643Y672028D01*
X853069Y672491D01*
X854550Y672726D01*
X856050Y672726D01*
X857338Y672522D01*
X854267Y666167D01*
X847913Y669239D01*
G37*
%LPD*%
%LPC*%
G36*
X858267Y664233D02*
X858267Y664233D01*
X861339Y670587D01*
X861506Y670466D01*
X862566Y669406D01*
X863447Y668193D01*
X864128Y666857D01*
X864591Y665431D01*
X864826Y663950D01*
X864826Y662450D01*
X864622Y661161D01*
X858267Y664233D01*
G37*
%LPD*%
%LPC*%
G36*
X854550Y653674D02*
X854550Y653674D01*
X853261Y653878D01*
X856333Y660233D01*
X862687Y657161D01*
X862566Y656994D01*
X861506Y655934D01*
X860293Y655053D01*
X858957Y654372D01*
X857531Y653909D01*
X856050Y653674D01*
X854550Y653674D01*
G37*
%LPD*%
%LPC*%
G36*
X865822Y332422D02*
X865822Y332422D01*
X865822Y339493D01*
X865831Y339491D01*
X867257Y339028D01*
X868593Y338347D01*
X869806Y337466D01*
X870866Y336406D01*
X871747Y335193D01*
X872428Y333857D01*
X872891Y332431D01*
X872893Y332422D01*
X865822Y332422D01*
G37*
%LPD*%
%LPC*%
G36*
X764222Y332422D02*
X764222Y332422D01*
X764222Y339493D01*
X764231Y339491D01*
X765657Y339028D01*
X766993Y338347D01*
X768206Y337466D01*
X769266Y336406D01*
X770147Y335193D01*
X770828Y333857D01*
X771291Y332431D01*
X771293Y332422D01*
X764222Y332422D01*
G37*
%LPD*%
%LPC*%
G36*
X882922Y665422D02*
X882922Y665422D01*
X882922Y672493D01*
X882931Y672491D01*
X884357Y672028D01*
X885693Y671347D01*
X886906Y670466D01*
X887966Y669406D01*
X888847Y668193D01*
X889528Y666857D01*
X889991Y665431D01*
X889993Y665422D01*
X882922Y665422D01*
G37*
%LPD*%
%LPC*%
G36*
X967422Y332422D02*
X967422Y332422D01*
X967422Y339493D01*
X967431Y339491D01*
X968857Y339028D01*
X970193Y338347D01*
X971406Y337466D01*
X972466Y336406D01*
X973347Y335193D01*
X974028Y333857D01*
X974491Y332431D01*
X974493Y332422D01*
X967422Y332422D01*
G37*
%LPD*%
%LPC*%
G36*
X984522Y436822D02*
X984522Y436822D01*
X984522Y443893D01*
X984531Y443891D01*
X985957Y443428D01*
X987293Y442747D01*
X988506Y441866D01*
X989566Y440806D01*
X990447Y439593D01*
X991128Y438257D01*
X991591Y436831D01*
X991593Y436822D01*
X984522Y436822D01*
G37*
%LPD*%
%LPC*%
G36*
X865822Y764222D02*
X865822Y764222D01*
X865822Y771293D01*
X865831Y771291D01*
X867257Y770828D01*
X868593Y770147D01*
X869806Y769266D01*
X870866Y768206D01*
X871747Y766993D01*
X872428Y765657D01*
X872891Y764231D01*
X872893Y764222D01*
X865822Y764222D01*
G37*
%LPD*%
%LPC*%
G36*
X764222Y764222D02*
X764222Y764222D01*
X764222Y771293D01*
X764231Y771291D01*
X765657Y770828D01*
X766993Y770147D01*
X768206Y769266D01*
X769266Y768206D01*
X770147Y766993D01*
X770828Y765657D01*
X771291Y764231D01*
X771293Y764222D01*
X764222Y764222D01*
G37*
%LPD*%
%LPC*%
G36*
X662622Y332422D02*
X662622Y332422D01*
X662622Y339493D01*
X662631Y339491D01*
X664057Y339028D01*
X665393Y338347D01*
X666606Y337466D01*
X667666Y336406D01*
X668547Y335193D01*
X669228Y333857D01*
X669691Y332431D01*
X669693Y332422D01*
X662622Y332422D01*
G37*
%LPD*%
%LPC*%
G36*
X908322Y665422D02*
X908322Y665422D01*
X908322Y672493D01*
X908331Y672491D01*
X909757Y672028D01*
X911093Y671347D01*
X912306Y670466D01*
X913366Y669406D01*
X914247Y668193D01*
X914928Y666857D01*
X915391Y665431D01*
X915393Y665422D01*
X908322Y665422D01*
G37*
%LPD*%
%LPC*%
G36*
X967422Y764222D02*
X967422Y764222D01*
X967422Y771293D01*
X967431Y771291D01*
X968857Y770828D01*
X970193Y770147D01*
X971406Y769266D01*
X972466Y768206D01*
X973347Y766993D01*
X974028Y765657D01*
X974491Y764231D01*
X974493Y764222D01*
X967422Y764222D01*
G37*
%LPD*%
%LPC*%
G36*
X662622Y764222D02*
X662622Y764222D01*
X662622Y771293D01*
X662631Y771291D01*
X664057Y770828D01*
X665393Y770147D01*
X666606Y769266D01*
X667666Y768206D01*
X668547Y766993D01*
X669228Y765657D01*
X669691Y764231D01*
X669693Y764222D01*
X662622Y764222D01*
G37*
%LPD*%
%LPC*%
G36*
X849094Y655934D02*
X849094Y655934D01*
X848034Y656994D01*
X847153Y658207D01*
X846472Y659543D01*
X846009Y660969D01*
X845774Y662450D01*
X845774Y663950D01*
X845978Y665238D01*
X852333Y662167D01*
X849261Y655813D01*
X849094Y655934D01*
G37*
%LPD*%
%LPC*%
G36*
X973007Y436822D02*
X973007Y436822D01*
X973009Y436831D01*
X973472Y438257D01*
X974153Y439593D01*
X975034Y440806D01*
X976094Y441866D01*
X977307Y442747D01*
X978643Y443428D01*
X980069Y443891D01*
X980078Y443893D01*
X980078Y436822D01*
X973007Y436822D01*
G37*
%LPD*%
%LPC*%
G36*
X955907Y764222D02*
X955907Y764222D01*
X955909Y764231D01*
X956372Y765657D01*
X957053Y766993D01*
X957934Y768206D01*
X958994Y769266D01*
X960207Y770147D01*
X961543Y770828D01*
X962969Y771291D01*
X962978Y771293D01*
X962978Y764222D01*
X955907Y764222D01*
G37*
%LPD*%
%LPC*%
G36*
X882922Y660978D02*
X882922Y660978D01*
X889993Y660978D01*
X889991Y660969D01*
X889528Y659543D01*
X888847Y658207D01*
X887966Y656994D01*
X886906Y655934D01*
X885693Y655053D01*
X884357Y654372D01*
X882931Y653909D01*
X882922Y653907D01*
X882922Y660978D01*
G37*
%LPD*%
%LPC*%
G36*
X651107Y764222D02*
X651107Y764222D01*
X651109Y764231D01*
X651572Y765657D01*
X652253Y766993D01*
X653134Y768206D01*
X654194Y769266D01*
X655407Y770147D01*
X656743Y770828D01*
X658169Y771291D01*
X658178Y771293D01*
X658178Y764222D01*
X651107Y764222D01*
G37*
%LPD*%
%LPC*%
G36*
X854307Y764222D02*
X854307Y764222D01*
X854309Y764231D01*
X854772Y765657D01*
X855453Y766993D01*
X856334Y768206D01*
X857394Y769266D01*
X858607Y770147D01*
X859943Y770828D01*
X861369Y771291D01*
X861378Y771293D01*
X861378Y764222D01*
X854307Y764222D01*
G37*
%LPD*%
%LPC*%
G36*
X984522Y432378D02*
X984522Y432378D01*
X991593Y432378D01*
X991591Y432369D01*
X991128Y430943D01*
X990447Y429607D01*
X989566Y428394D01*
X988506Y427334D01*
X987293Y426453D01*
X985957Y425772D01*
X984531Y425309D01*
X984522Y425307D01*
X984522Y432378D01*
G37*
%LPD*%
%LPC*%
G36*
X871407Y665422D02*
X871407Y665422D01*
X871409Y665431D01*
X871872Y666857D01*
X872553Y668193D01*
X873434Y669406D01*
X874494Y670466D01*
X875707Y671347D01*
X877043Y672028D01*
X878469Y672491D01*
X878478Y672493D01*
X878478Y665422D01*
X871407Y665422D01*
G37*
%LPD*%
%LPC*%
G36*
X752707Y764222D02*
X752707Y764222D01*
X752709Y764231D01*
X753172Y765657D01*
X753853Y766993D01*
X754734Y768206D01*
X755794Y769266D01*
X757007Y770147D01*
X758343Y770828D01*
X759769Y771291D01*
X759778Y771293D01*
X759778Y764222D01*
X752707Y764222D01*
G37*
%LPD*%
%LPC*%
G36*
X896807Y665422D02*
X896807Y665422D01*
X896809Y665431D01*
X897272Y666857D01*
X897953Y668193D01*
X898834Y669406D01*
X899894Y670466D01*
X901107Y671347D01*
X902443Y672028D01*
X903869Y672491D01*
X903878Y672493D01*
X903878Y665422D01*
X896807Y665422D01*
G37*
%LPD*%
%LPC*%
G36*
X662622Y327978D02*
X662622Y327978D01*
X669693Y327978D01*
X669691Y327969D01*
X669228Y326543D01*
X668547Y325207D01*
X667666Y323994D01*
X666606Y322934D01*
X665393Y322053D01*
X664057Y321372D01*
X662631Y320909D01*
X662622Y320907D01*
X662622Y327978D01*
G37*
%LPD*%
%LPC*%
G36*
X651107Y332422D02*
X651107Y332422D01*
X651109Y332431D01*
X651572Y333857D01*
X652253Y335193D01*
X653134Y336406D01*
X654194Y337466D01*
X655407Y338347D01*
X656743Y339028D01*
X658169Y339491D01*
X658178Y339493D01*
X658178Y332422D01*
X651107Y332422D01*
G37*
%LPD*%
%LPC*%
G36*
X854307Y332422D02*
X854307Y332422D01*
X854309Y332431D01*
X854772Y333857D01*
X855453Y335193D01*
X856334Y336406D01*
X857394Y337466D01*
X858607Y338347D01*
X859943Y339028D01*
X861369Y339491D01*
X861378Y339493D01*
X861378Y332422D01*
X854307Y332422D01*
G37*
%LPD*%
%LPC*%
G36*
X662622Y759778D02*
X662622Y759778D01*
X669693Y759778D01*
X669691Y759769D01*
X669228Y758343D01*
X668547Y757007D01*
X667666Y755794D01*
X666606Y754734D01*
X665393Y753853D01*
X664057Y753172D01*
X662631Y752709D01*
X662622Y752707D01*
X662622Y759778D01*
G37*
%LPD*%
%LPC*%
G36*
X752707Y332422D02*
X752707Y332422D01*
X752709Y332431D01*
X753172Y333857D01*
X753853Y335193D01*
X754734Y336406D01*
X755794Y337466D01*
X757007Y338347D01*
X758343Y339028D01*
X759769Y339491D01*
X759778Y339493D01*
X759778Y332422D01*
X752707Y332422D01*
G37*
%LPD*%
%LPC*%
G36*
X955907Y332422D02*
X955907Y332422D01*
X955909Y332431D01*
X956372Y333857D01*
X957053Y335193D01*
X957934Y336406D01*
X958994Y337466D01*
X960207Y338347D01*
X961543Y339028D01*
X962969Y339491D01*
X962978Y339493D01*
X962978Y332422D01*
X955907Y332422D01*
G37*
%LPD*%
%LPC*%
G36*
X967422Y327978D02*
X967422Y327978D01*
X974493Y327978D01*
X974491Y327969D01*
X974028Y326543D01*
X973347Y325207D01*
X972466Y323994D01*
X971406Y322934D01*
X970193Y322053D01*
X968857Y321372D01*
X967431Y320909D01*
X967422Y320907D01*
X967422Y327978D01*
G37*
%LPD*%
%LPC*%
G36*
X764222Y759778D02*
X764222Y759778D01*
X771293Y759778D01*
X771291Y759769D01*
X770828Y758343D01*
X770147Y757007D01*
X769266Y755794D01*
X768206Y754734D01*
X766993Y753853D01*
X765657Y753172D01*
X764231Y752709D01*
X764222Y752707D01*
X764222Y759778D01*
G37*
%LPD*%
%LPC*%
G36*
X865822Y327978D02*
X865822Y327978D01*
X872893Y327978D01*
X872891Y327969D01*
X872428Y326543D01*
X871747Y325207D01*
X870866Y323994D01*
X869806Y322934D01*
X868593Y322053D01*
X867257Y321372D01*
X865831Y320909D01*
X865822Y320907D01*
X865822Y327978D01*
G37*
%LPD*%
%LPC*%
G36*
X865822Y759778D02*
X865822Y759778D01*
X872893Y759778D01*
X872891Y759769D01*
X872428Y758343D01*
X871747Y757007D01*
X870866Y755794D01*
X869806Y754734D01*
X868593Y753853D01*
X867257Y753172D01*
X865831Y752709D01*
X865822Y752707D01*
X865822Y759778D01*
G37*
%LPD*%
%LPC*%
G36*
X764222Y327978D02*
X764222Y327978D01*
X771293Y327978D01*
X771291Y327969D01*
X770828Y326543D01*
X770147Y325207D01*
X769266Y323994D01*
X768206Y322934D01*
X766993Y322053D01*
X765657Y321372D01*
X764231Y320909D01*
X764222Y320907D01*
X764222Y327978D01*
G37*
%LPD*%
%LPC*%
G36*
X967422Y759778D02*
X967422Y759778D01*
X974493Y759778D01*
X974491Y759769D01*
X974028Y758343D01*
X973347Y757007D01*
X972466Y755794D01*
X971406Y754734D01*
X970193Y753853D01*
X968857Y753172D01*
X967431Y752709D01*
X967422Y752707D01*
X967422Y759778D01*
G37*
%LPD*%
%LPC*%
G36*
X908322Y660978D02*
X908322Y660978D01*
X915393Y660978D01*
X915391Y660969D01*
X914928Y659543D01*
X914247Y658207D01*
X913366Y656994D01*
X912306Y655934D01*
X911093Y655053D01*
X909757Y654372D01*
X908331Y653909D01*
X908322Y653907D01*
X908322Y660978D01*
G37*
%LPD*%
%LPC*%
G36*
X980069Y425309D02*
X980069Y425309D01*
X978643Y425772D01*
X977307Y426453D01*
X976094Y427334D01*
X975034Y428394D01*
X974153Y429607D01*
X973472Y430943D01*
X973009Y432369D01*
X973007Y432378D01*
X980078Y432378D01*
X980078Y425307D01*
X980069Y425309D01*
G37*
%LPD*%
%LPC*%
G36*
X759769Y752709D02*
X759769Y752709D01*
X758343Y753172D01*
X757007Y753853D01*
X755794Y754734D01*
X754734Y755794D01*
X753853Y757007D01*
X753172Y758343D01*
X752709Y759769D01*
X752707Y759778D01*
X759778Y759778D01*
X759778Y752707D01*
X759769Y752709D01*
G37*
%LPD*%
%LPC*%
G36*
X878469Y653909D02*
X878469Y653909D01*
X877043Y654372D01*
X875707Y655053D01*
X874494Y655934D01*
X873434Y656994D01*
X872553Y658207D01*
X871872Y659543D01*
X871409Y660969D01*
X871407Y660978D01*
X878478Y660978D01*
X878478Y653907D01*
X878469Y653909D01*
G37*
%LPD*%
%LPC*%
G36*
X903869Y653909D02*
X903869Y653909D01*
X902443Y654372D01*
X901107Y655053D01*
X899894Y655934D01*
X898834Y656994D01*
X897953Y658207D01*
X897272Y659543D01*
X896809Y660969D01*
X896807Y660978D01*
X903878Y660978D01*
X903878Y653907D01*
X903869Y653909D01*
G37*
%LPD*%
%LPC*%
G36*
X658169Y752709D02*
X658169Y752709D01*
X656743Y753172D01*
X655407Y753853D01*
X654194Y754734D01*
X653134Y755794D01*
X652253Y757007D01*
X651572Y758343D01*
X651109Y759769D01*
X651107Y759778D01*
X658178Y759778D01*
X658178Y752707D01*
X658169Y752709D01*
G37*
%LPD*%
%LPC*%
G36*
X658169Y320909D02*
X658169Y320909D01*
X656743Y321372D01*
X655407Y322053D01*
X654194Y322934D01*
X653134Y323994D01*
X652253Y325207D01*
X651572Y326543D01*
X651109Y327969D01*
X651107Y327978D01*
X658178Y327978D01*
X658178Y320907D01*
X658169Y320909D01*
G37*
%LPD*%
%LPC*%
G36*
X759769Y320909D02*
X759769Y320909D01*
X758343Y321372D01*
X757007Y322053D01*
X755794Y322934D01*
X754734Y323994D01*
X753853Y325207D01*
X753172Y326543D01*
X752709Y327969D01*
X752707Y327978D01*
X759778Y327978D01*
X759778Y320907D01*
X759769Y320909D01*
G37*
%LPD*%
%LPC*%
G36*
X962969Y320909D02*
X962969Y320909D01*
X961543Y321372D01*
X960207Y322053D01*
X958994Y322934D01*
X957934Y323994D01*
X957053Y325207D01*
X956372Y326543D01*
X955909Y327969D01*
X955907Y327978D01*
X962978Y327978D01*
X962978Y320907D01*
X962969Y320909D01*
G37*
%LPD*%
%LPC*%
G36*
X861369Y752709D02*
X861369Y752709D01*
X859943Y753172D01*
X858607Y753853D01*
X857394Y754734D01*
X856334Y755794D01*
X855453Y757007D01*
X854772Y758343D01*
X854309Y759769D01*
X854307Y759778D01*
X861378Y759778D01*
X861378Y752707D01*
X861369Y752709D01*
G37*
%LPD*%
%LPC*%
G36*
X861369Y320909D02*
X861369Y320909D01*
X859943Y321372D01*
X858607Y322053D01*
X857394Y322934D01*
X856334Y323994D01*
X855453Y325207D01*
X854772Y326543D01*
X854309Y327969D01*
X854307Y327978D01*
X861378Y327978D01*
X861378Y320907D01*
X861369Y320909D01*
G37*
%LPD*%
%LPC*%
G36*
X962969Y752709D02*
X962969Y752709D01*
X961543Y753172D01*
X960207Y753853D01*
X958994Y754734D01*
X957934Y755794D01*
X957053Y757007D01*
X956372Y758343D01*
X955909Y759769D01*
X955907Y759778D01*
X962978Y759778D01*
X962978Y752707D01*
X962969Y752709D01*
G37*
%LPD*%
%LPC*%
G36*
X507999Y520699D02*
X507999Y520699D01*
X507999Y520701D01*
X508001Y520701D01*
X508001Y520699D01*
X507999Y520699D01*
G37*
%LPD*%
D10*
X508000Y571500D03*
X508000Y546100D03*
X508000Y520700D03*
X508000Y596900D03*
D11*
X914400Y762000D03*
X939800Y762000D03*
X965200Y762000D03*
X812800Y762000D03*
X838200Y762000D03*
X863600Y762000D03*
X711200Y762000D03*
X736600Y762000D03*
X762000Y762000D03*
X609600Y762000D03*
X635000Y762000D03*
X660400Y762000D03*
X982300Y663200D03*
X956900Y663200D03*
X931500Y663200D03*
X906100Y663200D03*
X702900Y663200D03*
X728300Y663200D03*
X1033100Y434600D03*
X1007700Y434600D03*
X779100Y663200D03*
X753700Y663200D03*
X829900Y663200D03*
X804500Y663200D03*
X982300Y434600D03*
X956900Y434600D03*
X880700Y663200D03*
X855300Y663200D03*
X711200Y330200D03*
X736600Y330200D03*
X762000Y330200D03*
X609600Y330200D03*
X635000Y330200D03*
X660400Y330200D03*
X914400Y330200D03*
X939800Y330200D03*
X965200Y330200D03*
X812800Y330200D03*
X838200Y330200D03*
X863600Y330200D03*
D12*
X330200Y330200D03*
X1066800Y317500D03*
X1066800Y812800D03*
X330200Y812800D03*
D13*
X558800Y330200D03*
X508000Y330200D03*
M02*
