G04 EAGLE Gerber RS-274X export*
G75*
%MOMM*%
%FSLAX34Y34*%
%LPD*%
%INTop Copper*%
%IPPOS*%
%AMOC8*
5,1,8,0,0,1.08239X$1,22.5*%
G01*
%ADD10C,1.530000*%
%ADD11R,1.651000X1.651000*%
%ADD12C,1.651000*%
%ADD13P,1.649562X8X202.500000*%
%ADD14R,1.524000X1.524000*%
%ADD15P,1.649562X8X356.700000*%
%ADD16C,1.016000*%
%ADD17C,4.445000*%
%ADD18R,1.143000X1.270000*%
%ADD19C,0.254000*%
%ADD20C,0.756400*%

G36*
X1107237Y836689D02*
X1107237Y836689D01*
X1107238Y836696D01*
X1107237Y836703D01*
X1107238Y836717D01*
X1107216Y836819D01*
X1107200Y836921D01*
X1107190Y836938D01*
X1107186Y836958D01*
X1107133Y837047D01*
X1107084Y837138D01*
X1107070Y837152D01*
X1107060Y837169D01*
X1106981Y837236D01*
X1106906Y837308D01*
X1106888Y837316D01*
X1106873Y837329D01*
X1106777Y837368D01*
X1106683Y837411D01*
X1106663Y837413D01*
X1106645Y837421D01*
X1106478Y837439D01*
X1075850Y837439D01*
X1075733Y837420D01*
X1075616Y837402D01*
X1075611Y837400D01*
X1075607Y837400D01*
X1075503Y837344D01*
X1075397Y837290D01*
X1075394Y837287D01*
X1075389Y837284D01*
X1075308Y837199D01*
X1075225Y837114D01*
X1075223Y837109D01*
X1075220Y837106D01*
X1075170Y836998D01*
X1075119Y836892D01*
X1075118Y836887D01*
X1075116Y836883D01*
X1075103Y836766D01*
X1075089Y836648D01*
X1075090Y836643D01*
X1075089Y836639D01*
X1075114Y836523D01*
X1075138Y836407D01*
X1075141Y836403D01*
X1075142Y836398D01*
X1075202Y836297D01*
X1075262Y836194D01*
X1075265Y836191D01*
X1075268Y836187D01*
X1075358Y836110D01*
X1075447Y836032D01*
X1075452Y836030D01*
X1075455Y836027D01*
X1075469Y836021D01*
X1075598Y835959D01*
X1076292Y835717D01*
X1078799Y834510D01*
X1081154Y833030D01*
X1083329Y831296D01*
X1085296Y829329D01*
X1087030Y827154D01*
X1088510Y824799D01*
X1089717Y822292D01*
X1090635Y819667D01*
X1091254Y816955D01*
X1091551Y814323D01*
X1067562Y814323D01*
X1067542Y814320D01*
X1067523Y814322D01*
X1067421Y814300D01*
X1067319Y814283D01*
X1067302Y814274D01*
X1067282Y814270D01*
X1067193Y814217D01*
X1067102Y814168D01*
X1067088Y814154D01*
X1067071Y814144D01*
X1067004Y814065D01*
X1066933Y813990D01*
X1066924Y813972D01*
X1066911Y813957D01*
X1066873Y813861D01*
X1066829Y813767D01*
X1066827Y813747D01*
X1066819Y813729D01*
X1066801Y813562D01*
X1066801Y812799D01*
X1066799Y812799D01*
X1066799Y813562D01*
X1066796Y813582D01*
X1066798Y813601D01*
X1066776Y813703D01*
X1066759Y813805D01*
X1066750Y813822D01*
X1066746Y813842D01*
X1066693Y813931D01*
X1066644Y814022D01*
X1066630Y814036D01*
X1066620Y814053D01*
X1066541Y814120D01*
X1066466Y814191D01*
X1066448Y814200D01*
X1066433Y814213D01*
X1066337Y814252D01*
X1066243Y814295D01*
X1066223Y814297D01*
X1066205Y814305D01*
X1066038Y814323D01*
X1042049Y814323D01*
X1042346Y816955D01*
X1042965Y819667D01*
X1043883Y822292D01*
X1045090Y824799D01*
X1046570Y827154D01*
X1048304Y829329D01*
X1050271Y831296D01*
X1052446Y833030D01*
X1054801Y834510D01*
X1057308Y835717D01*
X1058002Y835959D01*
X1058107Y836017D01*
X1058211Y836072D01*
X1058214Y836075D01*
X1058218Y836077D01*
X1058299Y836165D01*
X1058380Y836250D01*
X1058382Y836254D01*
X1058385Y836258D01*
X1058433Y836365D01*
X1058484Y836473D01*
X1058484Y836478D01*
X1058486Y836482D01*
X1058498Y836599D01*
X1058511Y836717D01*
X1058510Y836722D01*
X1058510Y836727D01*
X1058484Y836841D01*
X1058458Y836958D01*
X1058456Y836962D01*
X1058455Y836966D01*
X1058394Y837066D01*
X1058332Y837169D01*
X1058329Y837172D01*
X1058326Y837176D01*
X1058236Y837251D01*
X1058145Y837329D01*
X1058141Y837331D01*
X1058137Y837334D01*
X1058028Y837376D01*
X1057917Y837421D01*
X1057912Y837421D01*
X1057908Y837423D01*
X1057893Y837423D01*
X1057750Y837439D01*
X339250Y837439D01*
X339132Y837420D01*
X339016Y837402D01*
X339011Y837400D01*
X339007Y837400D01*
X338902Y837344D01*
X338797Y837290D01*
X338794Y837287D01*
X338790Y837284D01*
X338708Y837198D01*
X338625Y837114D01*
X338623Y837109D01*
X338620Y837106D01*
X338570Y836998D01*
X338519Y836892D01*
X338518Y836887D01*
X338517Y836883D01*
X338504Y836766D01*
X338489Y836648D01*
X338490Y836643D01*
X338489Y836639D01*
X338515Y836523D01*
X338538Y836407D01*
X338541Y836403D01*
X338542Y836398D01*
X338603Y836296D01*
X338662Y836194D01*
X338665Y836191D01*
X338668Y836187D01*
X338758Y836110D01*
X338847Y836032D01*
X338852Y836030D01*
X338855Y836027D01*
X338869Y836022D01*
X338998Y835959D01*
X339692Y835717D01*
X342199Y834510D01*
X344554Y833030D01*
X346729Y831296D01*
X348696Y829329D01*
X350430Y827154D01*
X351910Y824799D01*
X353117Y822292D01*
X354035Y819667D01*
X354654Y816955D01*
X354951Y814323D01*
X330962Y814323D01*
X330942Y814320D01*
X330923Y814322D01*
X330821Y814300D01*
X330719Y814283D01*
X330702Y814274D01*
X330682Y814270D01*
X330593Y814217D01*
X330502Y814168D01*
X330488Y814154D01*
X330471Y814144D01*
X330404Y814065D01*
X330333Y813990D01*
X330324Y813972D01*
X330311Y813957D01*
X330273Y813861D01*
X330229Y813767D01*
X330227Y813747D01*
X330219Y813729D01*
X330201Y813562D01*
X330201Y812799D01*
X330199Y812799D01*
X330199Y813562D01*
X330196Y813582D01*
X330198Y813601D01*
X330176Y813703D01*
X330159Y813805D01*
X330150Y813822D01*
X330146Y813842D01*
X330093Y813931D01*
X330044Y814022D01*
X330030Y814036D01*
X330020Y814053D01*
X329941Y814120D01*
X329866Y814191D01*
X329848Y814200D01*
X329833Y814213D01*
X329737Y814252D01*
X329643Y814295D01*
X329623Y814297D01*
X329605Y814305D01*
X329438Y814323D01*
X305449Y814323D01*
X305746Y816955D01*
X306365Y819667D01*
X307283Y822292D01*
X308490Y824799D01*
X309970Y827154D01*
X311704Y829329D01*
X313671Y831296D01*
X315846Y833030D01*
X318201Y834510D01*
X320708Y835717D01*
X321402Y835959D01*
X321507Y836017D01*
X321610Y836072D01*
X321614Y836075D01*
X321618Y836077D01*
X321699Y836165D01*
X321780Y836250D01*
X321782Y836254D01*
X321785Y836258D01*
X321833Y836365D01*
X321883Y836473D01*
X321884Y836478D01*
X321886Y836482D01*
X321897Y836599D01*
X321911Y836717D01*
X321910Y836722D01*
X321910Y836727D01*
X321884Y836841D01*
X321858Y836958D01*
X321856Y836962D01*
X321855Y836966D01*
X321793Y837067D01*
X321732Y837169D01*
X321729Y837172D01*
X321726Y837176D01*
X321636Y837252D01*
X321545Y837329D01*
X321541Y837331D01*
X321537Y837334D01*
X321429Y837376D01*
X321317Y837421D01*
X321312Y837421D01*
X321308Y837423D01*
X321293Y837423D01*
X321150Y837439D01*
X290322Y837439D01*
X290302Y837436D01*
X290283Y837438D01*
X290181Y837416D01*
X290079Y837400D01*
X290062Y837390D01*
X290042Y837386D01*
X289953Y837333D01*
X289862Y837284D01*
X289848Y837270D01*
X289831Y837260D01*
X289764Y837181D01*
X289692Y837106D01*
X289684Y837088D01*
X289671Y837073D01*
X289632Y836977D01*
X289589Y836883D01*
X289587Y836863D01*
X289579Y836845D01*
X289561Y836678D01*
X289561Y290322D01*
X289564Y290302D01*
X289562Y290283D01*
X289584Y290181D01*
X289600Y290079D01*
X289610Y290062D01*
X289614Y290042D01*
X289667Y289953D01*
X289716Y289862D01*
X289730Y289848D01*
X289740Y289831D01*
X289819Y289764D01*
X289894Y289692D01*
X289912Y289684D01*
X289927Y289671D01*
X290023Y289632D01*
X290117Y289589D01*
X290137Y289587D01*
X290155Y289579D01*
X290322Y289561D01*
X1106478Y289561D01*
X1106498Y289564D01*
X1106517Y289562D01*
X1106619Y289584D01*
X1106721Y289600D01*
X1106738Y289610D01*
X1106758Y289614D01*
X1106847Y289667D01*
X1106938Y289716D01*
X1106952Y289730D01*
X1106969Y289740D01*
X1107036Y289819D01*
X1107108Y289894D01*
X1107116Y289912D01*
X1107129Y289927D01*
X1107168Y290023D01*
X1107211Y290117D01*
X1107213Y290137D01*
X1107221Y290155D01*
X1107239Y290322D01*
X1107239Y836678D01*
X1107237Y836689D01*
G37*
%LPC*%
G36*
X381000Y761239D02*
X381000Y761239D01*
X381020Y761242D01*
X381039Y761240D01*
X381141Y761262D01*
X381243Y761279D01*
X381260Y761288D01*
X381280Y761292D01*
X381369Y761345D01*
X381460Y761394D01*
X381474Y761408D01*
X381491Y761418D01*
X381558Y761497D01*
X381630Y761572D01*
X381638Y761590D01*
X381651Y761605D01*
X381690Y761701D01*
X381733Y761795D01*
X381735Y761815D01*
X381743Y761833D01*
X381761Y762000D01*
X381761Y800930D01*
X381758Y800950D01*
X381760Y800970D01*
X381755Y800993D01*
X381756Y801017D01*
X381734Y801094D01*
X381722Y801173D01*
X381712Y801191D01*
X381708Y801210D01*
X381696Y801231D01*
X381689Y801254D01*
X381644Y801320D01*
X381606Y801390D01*
X381592Y801404D01*
X381582Y801421D01*
X381563Y801437D01*
X381550Y801457D01*
X381486Y801505D01*
X381428Y801560D01*
X381410Y801568D01*
X381395Y801581D01*
X381372Y801590D01*
X381353Y801605D01*
X381218Y801658D01*
X381205Y801663D01*
X381202Y801664D01*
X381197Y801666D01*
X375459Y803203D01*
X371403Y807259D01*
X369918Y812800D01*
X371403Y818341D01*
X375459Y822397D01*
X381000Y823882D01*
X386541Y822397D01*
X390597Y818341D01*
X392134Y812603D01*
X392152Y812563D01*
X392162Y812520D01*
X392203Y812452D01*
X392236Y812379D01*
X392265Y812347D01*
X392288Y812309D01*
X392349Y812257D01*
X392403Y812199D01*
X392441Y812178D01*
X392475Y812149D01*
X392549Y812119D01*
X392619Y812081D01*
X392662Y812074D01*
X392703Y812057D01*
X392848Y812041D01*
X392861Y812039D01*
X392865Y812039D01*
X392870Y812039D01*
X394530Y812039D01*
X394574Y812046D01*
X394617Y812044D01*
X394694Y812066D01*
X394773Y812079D01*
X394812Y812099D01*
X394854Y812111D01*
X394920Y812156D01*
X394990Y812194D01*
X395021Y812225D01*
X395057Y812250D01*
X395105Y812314D01*
X395160Y812372D01*
X395178Y812412D01*
X395205Y812447D01*
X395258Y812583D01*
X395263Y812595D01*
X395264Y812598D01*
X395266Y812603D01*
X396803Y818341D01*
X400859Y822397D01*
X406400Y823882D01*
X411941Y822397D01*
X415997Y818341D01*
X417534Y812603D01*
X417552Y812563D01*
X417562Y812520D01*
X417603Y812452D01*
X417636Y812379D01*
X417665Y812347D01*
X417688Y812309D01*
X417749Y812257D01*
X417803Y812199D01*
X417841Y812178D01*
X417875Y812149D01*
X417949Y812119D01*
X418019Y812081D01*
X418062Y812074D01*
X418103Y812057D01*
X418248Y812041D01*
X418261Y812039D01*
X418265Y812039D01*
X418270Y812039D01*
X579171Y812039D01*
X579261Y812054D01*
X579352Y812061D01*
X579382Y812073D01*
X579414Y812079D01*
X579495Y812121D01*
X579578Y812157D01*
X579611Y812183D01*
X579631Y812194D01*
X579653Y812217D01*
X579709Y812262D01*
X583042Y815595D01*
X974253Y815595D01*
X977586Y812262D01*
X977660Y812209D01*
X977729Y812149D01*
X977759Y812137D01*
X977786Y812118D01*
X977873Y812091D01*
X977957Y812057D01*
X977998Y812053D01*
X978021Y812046D01*
X978053Y812047D01*
X978124Y812039D01*
X978730Y812039D01*
X978774Y812046D01*
X978817Y812044D01*
X978894Y812066D01*
X978973Y812079D01*
X979012Y812099D01*
X979054Y812111D01*
X979120Y812156D01*
X979190Y812194D01*
X979221Y812225D01*
X979257Y812250D01*
X979305Y812314D01*
X979360Y812372D01*
X979378Y812412D01*
X979405Y812447D01*
X979458Y812583D01*
X979463Y812595D01*
X979464Y812598D01*
X979466Y812603D01*
X981003Y818341D01*
X985059Y822397D01*
X990600Y823882D01*
X996141Y822397D01*
X1000197Y818341D01*
X1001734Y812603D01*
X1001752Y812563D01*
X1001762Y812520D01*
X1001803Y812452D01*
X1001836Y812379D01*
X1001865Y812347D01*
X1001888Y812309D01*
X1001949Y812257D01*
X1002003Y812199D01*
X1002041Y812178D01*
X1002075Y812149D01*
X1002149Y812119D01*
X1002219Y812081D01*
X1002262Y812074D01*
X1002303Y812057D01*
X1002448Y812041D01*
X1002461Y812039D01*
X1002465Y812039D01*
X1002470Y812039D01*
X1004130Y812039D01*
X1004174Y812046D01*
X1004217Y812044D01*
X1004294Y812066D01*
X1004373Y812079D01*
X1004412Y812099D01*
X1004454Y812111D01*
X1004520Y812156D01*
X1004590Y812194D01*
X1004621Y812225D01*
X1004657Y812250D01*
X1004705Y812314D01*
X1004760Y812372D01*
X1004778Y812412D01*
X1004805Y812447D01*
X1004858Y812583D01*
X1004863Y812595D01*
X1004864Y812598D01*
X1004866Y812603D01*
X1006403Y818341D01*
X1010459Y822397D01*
X1016000Y823882D01*
X1021541Y822397D01*
X1025597Y818341D01*
X1027082Y812800D01*
X1025597Y807259D01*
X1021541Y803203D01*
X1015803Y801666D01*
X1015763Y801648D01*
X1015720Y801638D01*
X1015652Y801597D01*
X1015579Y801564D01*
X1015547Y801535D01*
X1015509Y801512D01*
X1015457Y801451D01*
X1015399Y801397D01*
X1015378Y801359D01*
X1015349Y801325D01*
X1015319Y801251D01*
X1015281Y801181D01*
X1015274Y801138D01*
X1015257Y801097D01*
X1015241Y800952D01*
X1015239Y800939D01*
X1015239Y800935D01*
X1015239Y800930D01*
X1015239Y792429D01*
X1015254Y792339D01*
X1015261Y792248D01*
X1015273Y792218D01*
X1015279Y792186D01*
X1015321Y792105D01*
X1015357Y792022D01*
X1015383Y791989D01*
X1015394Y791969D01*
X1015417Y791947D01*
X1015462Y791891D01*
X1044195Y763158D01*
X1044195Y762000D01*
X1044198Y761980D01*
X1044196Y761961D01*
X1044218Y761859D01*
X1044234Y761757D01*
X1044244Y761740D01*
X1044248Y761720D01*
X1044301Y761631D01*
X1044350Y761540D01*
X1044364Y761526D01*
X1044374Y761509D01*
X1044453Y761442D01*
X1044528Y761371D01*
X1044546Y761362D01*
X1044561Y761349D01*
X1044657Y761310D01*
X1044751Y761267D01*
X1044771Y761265D01*
X1044789Y761257D01*
X1044956Y761239D01*
X1091439Y761239D01*
X1091439Y356361D01*
X1016000Y356361D01*
X1015980Y356358D01*
X1015961Y356360D01*
X1015859Y356338D01*
X1015757Y356322D01*
X1015740Y356312D01*
X1015720Y356308D01*
X1015631Y356255D01*
X1015540Y356206D01*
X1015526Y356192D01*
X1015509Y356182D01*
X1015442Y356103D01*
X1015371Y356028D01*
X1015362Y356010D01*
X1015349Y355995D01*
X1015310Y355899D01*
X1015267Y355805D01*
X1015265Y355785D01*
X1015257Y355767D01*
X1015239Y355600D01*
X1015239Y316670D01*
X1015246Y316626D01*
X1015244Y316583D01*
X1015266Y316506D01*
X1015279Y316427D01*
X1015299Y316388D01*
X1015311Y316346D01*
X1015356Y316280D01*
X1015394Y316210D01*
X1015425Y316179D01*
X1015450Y316143D01*
X1015514Y316095D01*
X1015572Y316040D01*
X1015612Y316022D01*
X1015647Y315995D01*
X1015783Y315942D01*
X1015795Y315937D01*
X1015798Y315936D01*
X1015803Y315934D01*
X1021541Y314397D01*
X1025597Y310341D01*
X1027082Y304800D01*
X1025597Y299259D01*
X1021541Y295203D01*
X1016000Y293718D01*
X1010459Y295203D01*
X1006403Y299259D01*
X1004866Y304997D01*
X1004856Y305019D01*
X1004852Y305043D01*
X1004844Y305058D01*
X1004842Y305066D01*
X1004841Y305067D01*
X1004838Y305080D01*
X1004797Y305149D01*
X1004764Y305221D01*
X1004748Y305239D01*
X1004737Y305260D01*
X1004722Y305274D01*
X1004712Y305291D01*
X1004651Y305343D01*
X1004597Y305401D01*
X1004576Y305413D01*
X1004558Y305430D01*
X1004540Y305438D01*
X1004525Y305451D01*
X1004451Y305481D01*
X1004381Y305519D01*
X1004357Y305523D01*
X1004335Y305533D01*
X1004316Y305535D01*
X1004297Y305543D01*
X1004152Y305559D01*
X1004139Y305561D01*
X1004135Y305561D01*
X1004130Y305561D01*
X1002470Y305561D01*
X1002450Y305558D01*
X1002430Y305560D01*
X1002407Y305555D01*
X1002383Y305556D01*
X1002306Y305534D01*
X1002227Y305522D01*
X1002209Y305512D01*
X1002190Y305508D01*
X1002169Y305496D01*
X1002146Y305489D01*
X1002080Y305444D01*
X1002010Y305406D01*
X1001996Y305392D01*
X1001979Y305382D01*
X1001963Y305363D01*
X1001943Y305350D01*
X1001895Y305286D01*
X1001840Y305228D01*
X1001832Y305210D01*
X1001819Y305195D01*
X1001810Y305172D01*
X1001795Y305153D01*
X1001742Y305018D01*
X1001737Y305005D01*
X1001736Y305002D01*
X1001734Y304997D01*
X1000197Y299259D01*
X996141Y295203D01*
X990600Y293718D01*
X985059Y295203D01*
X981003Y299259D01*
X979466Y304997D01*
X979456Y305019D01*
X979452Y305043D01*
X979444Y305058D01*
X979442Y305066D01*
X979441Y305067D01*
X979438Y305080D01*
X979397Y305149D01*
X979364Y305221D01*
X979348Y305239D01*
X979337Y305260D01*
X979322Y305274D01*
X979312Y305291D01*
X979251Y305343D01*
X979197Y305401D01*
X979176Y305413D01*
X979158Y305430D01*
X979140Y305438D01*
X979125Y305451D01*
X979051Y305481D01*
X978981Y305519D01*
X978957Y305523D01*
X978935Y305533D01*
X978916Y305535D01*
X978897Y305543D01*
X978752Y305559D01*
X978739Y305561D01*
X978735Y305561D01*
X978730Y305561D01*
X381761Y305561D01*
X381761Y381000D01*
X381758Y381020D01*
X381760Y381039D01*
X381738Y381141D01*
X381722Y381243D01*
X381712Y381260D01*
X381708Y381280D01*
X381655Y381369D01*
X381606Y381460D01*
X381592Y381474D01*
X381582Y381491D01*
X381503Y381558D01*
X381428Y381630D01*
X381410Y381638D01*
X381395Y381651D01*
X381299Y381690D01*
X381205Y381733D01*
X381185Y381735D01*
X381167Y381743D01*
X381000Y381761D01*
X305561Y381761D01*
X305561Y761239D01*
X381000Y761239D01*
G37*
%LPD*%
%LPC*%
G36*
X1068323Y319023D02*
X1068323Y319023D01*
X1068323Y342251D01*
X1070955Y341954D01*
X1073628Y341344D01*
X1073667Y341335D01*
X1076292Y340417D01*
X1078799Y339210D01*
X1081154Y337730D01*
X1083329Y335996D01*
X1085296Y334029D01*
X1087030Y331854D01*
X1088510Y329499D01*
X1089717Y326992D01*
X1090635Y324367D01*
X1091254Y321655D01*
X1091551Y319023D01*
X1068323Y319023D01*
G37*
%LPD*%
%LPC*%
G36*
X331723Y331723D02*
X331723Y331723D01*
X331723Y354951D01*
X334355Y354654D01*
X335971Y354285D01*
X337067Y354035D01*
X339692Y353117D01*
X342199Y351910D01*
X344554Y350430D01*
X346729Y348696D01*
X348696Y346729D01*
X350430Y344554D01*
X351910Y342199D01*
X353117Y339692D01*
X354035Y337067D01*
X354654Y334355D01*
X354951Y331723D01*
X331723Y331723D01*
G37*
%LPD*%
%LPC*%
G36*
X1042049Y319023D02*
X1042049Y319023D01*
X1042346Y321655D01*
X1042965Y324367D01*
X1043883Y326992D01*
X1045090Y329499D01*
X1046570Y331854D01*
X1048304Y334029D01*
X1050271Y335996D01*
X1052446Y337730D01*
X1054801Y339210D01*
X1057308Y340417D01*
X1059933Y341335D01*
X1062645Y341954D01*
X1065277Y342251D01*
X1065277Y319023D01*
X1042049Y319023D01*
G37*
%LPD*%
%LPC*%
G36*
X305449Y331723D02*
X305449Y331723D01*
X305746Y334355D01*
X306365Y337067D01*
X307283Y339692D01*
X308490Y342199D01*
X309970Y344554D01*
X311704Y346729D01*
X313671Y348696D01*
X315846Y350430D01*
X318201Y351910D01*
X320708Y353117D01*
X323333Y354035D01*
X326045Y354654D01*
X328677Y354951D01*
X328677Y331723D01*
X305449Y331723D01*
G37*
%LPD*%
%LPC*%
G36*
X1068323Y315977D02*
X1068323Y315977D01*
X1091551Y315977D01*
X1091254Y313345D01*
X1090635Y310633D01*
X1089717Y308008D01*
X1088510Y305501D01*
X1087030Y303146D01*
X1085296Y300971D01*
X1083329Y299004D01*
X1081154Y297270D01*
X1078799Y295790D01*
X1076292Y294583D01*
X1073667Y293665D01*
X1070955Y293046D01*
X1068323Y292749D01*
X1068323Y315977D01*
G37*
%LPD*%
%LPC*%
G36*
X331723Y328677D02*
X331723Y328677D01*
X354951Y328677D01*
X354654Y326045D01*
X354035Y323333D01*
X353117Y320708D01*
X351910Y318201D01*
X350430Y315846D01*
X348696Y313671D01*
X346729Y311704D01*
X344554Y309970D01*
X342199Y308490D01*
X339692Y307283D01*
X337067Y306365D01*
X334355Y305746D01*
X331723Y305449D01*
X331723Y328677D01*
G37*
%LPD*%
%LPC*%
G36*
X331723Y811277D02*
X331723Y811277D01*
X354951Y811277D01*
X354654Y808645D01*
X354035Y805933D01*
X353117Y803308D01*
X351910Y800801D01*
X350430Y798446D01*
X348696Y796271D01*
X346729Y794304D01*
X344554Y792570D01*
X342199Y791090D01*
X339692Y789883D01*
X337067Y788965D01*
X334355Y788346D01*
X331723Y788049D01*
X331723Y811277D01*
G37*
%LPD*%
%LPC*%
G36*
X1068323Y811277D02*
X1068323Y811277D01*
X1091551Y811277D01*
X1091254Y808645D01*
X1090635Y805933D01*
X1089717Y803308D01*
X1088510Y800801D01*
X1087030Y798446D01*
X1085296Y796271D01*
X1083329Y794304D01*
X1081154Y792570D01*
X1078799Y791090D01*
X1076292Y789883D01*
X1073667Y788965D01*
X1070955Y788346D01*
X1068323Y788049D01*
X1068323Y811277D01*
G37*
%LPD*%
%LPC*%
G36*
X326045Y305746D02*
X326045Y305746D01*
X323661Y306290D01*
X323333Y306365D01*
X320708Y307283D01*
X318201Y308490D01*
X315846Y309970D01*
X313671Y311704D01*
X311704Y313671D01*
X309970Y315846D01*
X308490Y318201D01*
X307283Y320708D01*
X306365Y323333D01*
X305746Y326045D01*
X305449Y328677D01*
X328677Y328677D01*
X328677Y305449D01*
X326045Y305746D01*
G37*
%LPD*%
%LPC*%
G36*
X1062645Y293046D02*
X1062645Y293046D01*
X1061318Y293348D01*
X1061318Y293349D01*
X1059933Y293665D01*
X1057308Y294583D01*
X1054801Y295790D01*
X1052446Y297270D01*
X1050271Y299004D01*
X1048304Y300971D01*
X1046570Y303146D01*
X1045090Y305501D01*
X1043883Y308008D01*
X1042965Y310633D01*
X1042346Y313345D01*
X1042049Y315977D01*
X1065277Y315977D01*
X1065277Y292749D01*
X1062645Y293046D01*
G37*
%LPD*%
%LPC*%
G36*
X326045Y788346D02*
X326045Y788346D01*
X324585Y788679D01*
X324584Y788679D01*
X323333Y788965D01*
X320708Y789883D01*
X318201Y791090D01*
X315846Y792570D01*
X313671Y794304D01*
X311704Y796271D01*
X309970Y798446D01*
X308490Y800801D01*
X307283Y803308D01*
X306365Y805933D01*
X305746Y808645D01*
X305449Y811277D01*
X328677Y811277D01*
X328677Y788049D01*
X326045Y788346D01*
G37*
%LPD*%
%LPC*%
G36*
X1062645Y788346D02*
X1062645Y788346D01*
X1061185Y788679D01*
X1061184Y788679D01*
X1059933Y788965D01*
X1057308Y789883D01*
X1054801Y791090D01*
X1052446Y792570D01*
X1050271Y794304D01*
X1048304Y796271D01*
X1046570Y798446D01*
X1045090Y800801D01*
X1043883Y803308D01*
X1042965Y805933D01*
X1042346Y808645D01*
X1042049Y811277D01*
X1065277Y811277D01*
X1065277Y788049D01*
X1062645Y788346D01*
G37*
%LPD*%
%LPC*%
G36*
X1066799Y317499D02*
X1066799Y317499D01*
X1066799Y317501D01*
X1066801Y317501D01*
X1066801Y317499D01*
X1066799Y317499D01*
G37*
%LPD*%
%LPC*%
G36*
X330199Y330199D02*
X330199Y330199D01*
X330199Y330201D01*
X330201Y330201D01*
X330201Y330199D01*
X330199Y330199D01*
G37*
%LPD*%
D10*
X508000Y571500D03*
X508000Y546100D03*
X508000Y520700D03*
X508000Y596900D03*
D11*
X914400Y762000D03*
D12*
X939800Y762000D03*
X965200Y762000D03*
D11*
X812800Y762000D03*
D12*
X838200Y762000D03*
X863600Y762000D03*
D11*
X711200Y762000D03*
D12*
X736600Y762000D03*
X762000Y762000D03*
D11*
X609600Y762000D03*
D12*
X635000Y762000D03*
X660400Y762000D03*
D13*
X982300Y663200D03*
X956900Y663200D03*
X931500Y663200D03*
X906100Y663200D03*
X702900Y663200D03*
X728300Y663200D03*
D14*
X1033100Y434600D03*
D13*
X1007700Y434600D03*
X779100Y663200D03*
X753700Y663200D03*
X829900Y663200D03*
X804500Y663200D03*
X982300Y434600D03*
X956900Y434600D03*
X880700Y663200D03*
D15*
X855300Y663200D03*
D11*
X711200Y330200D03*
D12*
X736600Y330200D03*
X762000Y330200D03*
D11*
X609600Y330200D03*
D12*
X635000Y330200D03*
X660400Y330200D03*
D11*
X914400Y330200D03*
D12*
X939800Y330200D03*
X965200Y330200D03*
D11*
X812800Y330200D03*
D12*
X838200Y330200D03*
X863600Y330200D03*
D16*
X990600Y812800D03*
X990600Y304800D03*
X1016000Y304800D03*
X406400Y812800D03*
X1016000Y812800D03*
X381000Y812800D03*
D17*
X330200Y330200D03*
X1066800Y317500D03*
X1066800Y812800D03*
X330200Y812800D03*
D18*
X524510Y330200D03*
X542290Y330200D03*
D19*
X558800Y330200D01*
D20*
X558800Y330200D03*
D19*
X711200Y646100D02*
X728300Y663200D01*
X711200Y646100D02*
X711200Y330200D01*
X609600Y330200D02*
X609600Y609600D01*
X663200Y663200D02*
X702900Y663200D01*
X663200Y663200D02*
X609600Y609600D01*
X914400Y330200D02*
X965200Y381000D01*
X1016000Y381000D01*
X1033100Y398100D01*
X1033100Y434600D01*
X889000Y406400D02*
X812800Y330200D01*
X889000Y406400D02*
X990600Y406400D01*
X1007700Y423500D01*
X1007700Y434600D01*
X619374Y762000D02*
X609600Y762000D01*
X619374Y762000D02*
X630423Y750951D01*
X646049Y750951D01*
X743028Y663200D02*
X753700Y663200D01*
X732614Y673614D02*
X723386Y673614D01*
X732614Y673614D02*
X743028Y663200D01*
X723386Y673614D02*
X646049Y750951D01*
X711200Y762000D02*
X711200Y711200D01*
X748786Y673614D01*
X768428Y663200D02*
X779100Y663200D01*
X758014Y673614D02*
X748786Y673614D01*
X758014Y673614D02*
X768428Y663200D01*
X804500Y663200D02*
X812800Y671500D01*
X812800Y762000D01*
X914400Y762000D02*
X914400Y736600D01*
X839385Y663200D02*
X829900Y663200D01*
X848664Y672479D02*
X850279Y672479D01*
X848664Y672479D02*
X839385Y663200D01*
X850279Y672479D02*
X914400Y736600D01*
X508000Y582130D02*
X508000Y571500D01*
X508000Y582130D02*
X497556Y592574D01*
X497556Y700756D01*
X584200Y787400D01*
X990600Y787400D01*
X1016000Y762000D01*
X1016000Y685800D01*
X993400Y663200D01*
X982300Y663200D01*
X508000Y546100D02*
X482600Y571500D01*
X482600Y711200D01*
X584200Y812800D01*
X973095Y812800D02*
X985473Y800422D01*
X1002978Y800422D01*
X1041400Y762000D02*
X1041400Y660400D01*
X1016000Y635000D01*
X985100Y635000D02*
X956900Y663200D01*
X973095Y812800D02*
X584200Y812800D01*
X1002978Y800422D02*
X1041400Y762000D01*
X1016000Y635000D02*
X985100Y635000D01*
X524510Y330200D02*
X508000Y330200D01*
D20*
X508000Y330200D03*
D19*
X330200Y330200D01*
M02*
