G04 EAGLE Gerber RS-274X export*
G75*
%MOMM*%
%FSLAX34Y34*%
%LPD*%
%INSoldermask Top*%
%IPPOS*%
%AMOC8*
5,1,8,0,0,1.08239X$1,22.5*%
G01*
%ADD10C,1.733200*%
%ADD11R,1.854200X1.854200*%
%ADD12C,1.854200*%
%ADD13P,1.869504X8X202.500000*%
%ADD14R,1.727200X1.727200*%
%ADD15P,1.869504X8X356.700000*%
%ADD16C,0.609600*%
%ADD17C,1.219200*%
%ADD18C,4.648200*%
%ADD19R,1.346200X1.473200*%
%ADD20C,0.959600*%


D10*
X508000Y571500D03*
X508000Y546100D03*
X508000Y520700D03*
X508000Y596900D03*
D11*
X914400Y762000D03*
D12*
X939800Y762000D03*
X965200Y762000D03*
D11*
X812800Y762000D03*
D12*
X838200Y762000D03*
X863600Y762000D03*
D11*
X711200Y762000D03*
D12*
X736600Y762000D03*
X762000Y762000D03*
D11*
X609600Y762000D03*
D12*
X635000Y762000D03*
X660400Y762000D03*
D13*
X982300Y663200D03*
X956900Y663200D03*
X931500Y663200D03*
X906100Y663200D03*
X702900Y663200D03*
X728300Y663200D03*
D14*
X1033100Y434600D03*
D13*
X1007700Y434600D03*
X779100Y663200D03*
X753700Y663200D03*
X829900Y663200D03*
X804500Y663200D03*
X982300Y434600D03*
X956900Y434600D03*
X880700Y663200D03*
D15*
X855300Y663200D03*
D11*
X711200Y330200D03*
D12*
X736600Y330200D03*
X762000Y330200D03*
D11*
X609600Y330200D03*
D12*
X635000Y330200D03*
X660400Y330200D03*
D11*
X914400Y330200D03*
D12*
X939800Y330200D03*
X965200Y330200D03*
D11*
X812800Y330200D03*
D12*
X838200Y330200D03*
X863600Y330200D03*
D16*
X982980Y812800D02*
X982982Y812987D01*
X982989Y813174D01*
X983001Y813361D01*
X983017Y813547D01*
X983037Y813733D01*
X983062Y813918D01*
X983092Y814103D01*
X983126Y814287D01*
X983165Y814470D01*
X983208Y814652D01*
X983256Y814832D01*
X983308Y815012D01*
X983365Y815190D01*
X983425Y815367D01*
X983491Y815542D01*
X983560Y815716D01*
X983634Y815888D01*
X983712Y816058D01*
X983794Y816226D01*
X983880Y816392D01*
X983970Y816556D01*
X984064Y816717D01*
X984162Y816877D01*
X984264Y817033D01*
X984370Y817188D01*
X984480Y817339D01*
X984593Y817488D01*
X984710Y817634D01*
X984830Y817777D01*
X984954Y817917D01*
X985081Y818054D01*
X985212Y818188D01*
X985346Y818319D01*
X985483Y818446D01*
X985623Y818570D01*
X985766Y818690D01*
X985912Y818807D01*
X986061Y818920D01*
X986212Y819030D01*
X986367Y819136D01*
X986523Y819238D01*
X986683Y819336D01*
X986844Y819430D01*
X987008Y819520D01*
X987174Y819606D01*
X987342Y819688D01*
X987512Y819766D01*
X987684Y819840D01*
X987858Y819909D01*
X988033Y819975D01*
X988210Y820035D01*
X988388Y820092D01*
X988568Y820144D01*
X988748Y820192D01*
X988930Y820235D01*
X989113Y820274D01*
X989297Y820308D01*
X989482Y820338D01*
X989667Y820363D01*
X989853Y820383D01*
X990039Y820399D01*
X990226Y820411D01*
X990413Y820418D01*
X990600Y820420D01*
X990787Y820418D01*
X990974Y820411D01*
X991161Y820399D01*
X991347Y820383D01*
X991533Y820363D01*
X991718Y820338D01*
X991903Y820308D01*
X992087Y820274D01*
X992270Y820235D01*
X992452Y820192D01*
X992632Y820144D01*
X992812Y820092D01*
X992990Y820035D01*
X993167Y819975D01*
X993342Y819909D01*
X993516Y819840D01*
X993688Y819766D01*
X993858Y819688D01*
X994026Y819606D01*
X994192Y819520D01*
X994356Y819430D01*
X994517Y819336D01*
X994677Y819238D01*
X994833Y819136D01*
X994988Y819030D01*
X995139Y818920D01*
X995288Y818807D01*
X995434Y818690D01*
X995577Y818570D01*
X995717Y818446D01*
X995854Y818319D01*
X995988Y818188D01*
X996119Y818054D01*
X996246Y817917D01*
X996370Y817777D01*
X996490Y817634D01*
X996607Y817488D01*
X996720Y817339D01*
X996830Y817188D01*
X996936Y817033D01*
X997038Y816877D01*
X997136Y816717D01*
X997230Y816556D01*
X997320Y816392D01*
X997406Y816226D01*
X997488Y816058D01*
X997566Y815888D01*
X997640Y815716D01*
X997709Y815542D01*
X997775Y815367D01*
X997835Y815190D01*
X997892Y815012D01*
X997944Y814832D01*
X997992Y814652D01*
X998035Y814470D01*
X998074Y814287D01*
X998108Y814103D01*
X998138Y813918D01*
X998163Y813733D01*
X998183Y813547D01*
X998199Y813361D01*
X998211Y813174D01*
X998218Y812987D01*
X998220Y812800D01*
X998218Y812613D01*
X998211Y812426D01*
X998199Y812239D01*
X998183Y812053D01*
X998163Y811867D01*
X998138Y811682D01*
X998108Y811497D01*
X998074Y811313D01*
X998035Y811130D01*
X997992Y810948D01*
X997944Y810768D01*
X997892Y810588D01*
X997835Y810410D01*
X997775Y810233D01*
X997709Y810058D01*
X997640Y809884D01*
X997566Y809712D01*
X997488Y809542D01*
X997406Y809374D01*
X997320Y809208D01*
X997230Y809044D01*
X997136Y808883D01*
X997038Y808723D01*
X996936Y808567D01*
X996830Y808412D01*
X996720Y808261D01*
X996607Y808112D01*
X996490Y807966D01*
X996370Y807823D01*
X996246Y807683D01*
X996119Y807546D01*
X995988Y807412D01*
X995854Y807281D01*
X995717Y807154D01*
X995577Y807030D01*
X995434Y806910D01*
X995288Y806793D01*
X995139Y806680D01*
X994988Y806570D01*
X994833Y806464D01*
X994677Y806362D01*
X994517Y806264D01*
X994356Y806170D01*
X994192Y806080D01*
X994026Y805994D01*
X993858Y805912D01*
X993688Y805834D01*
X993516Y805760D01*
X993342Y805691D01*
X993167Y805625D01*
X992990Y805565D01*
X992812Y805508D01*
X992632Y805456D01*
X992452Y805408D01*
X992270Y805365D01*
X992087Y805326D01*
X991903Y805292D01*
X991718Y805262D01*
X991533Y805237D01*
X991347Y805217D01*
X991161Y805201D01*
X990974Y805189D01*
X990787Y805182D01*
X990600Y805180D01*
X990413Y805182D01*
X990226Y805189D01*
X990039Y805201D01*
X989853Y805217D01*
X989667Y805237D01*
X989482Y805262D01*
X989297Y805292D01*
X989113Y805326D01*
X988930Y805365D01*
X988748Y805408D01*
X988568Y805456D01*
X988388Y805508D01*
X988210Y805565D01*
X988033Y805625D01*
X987858Y805691D01*
X987684Y805760D01*
X987512Y805834D01*
X987342Y805912D01*
X987174Y805994D01*
X987008Y806080D01*
X986844Y806170D01*
X986683Y806264D01*
X986523Y806362D01*
X986367Y806464D01*
X986212Y806570D01*
X986061Y806680D01*
X985912Y806793D01*
X985766Y806910D01*
X985623Y807030D01*
X985483Y807154D01*
X985346Y807281D01*
X985212Y807412D01*
X985081Y807546D01*
X984954Y807683D01*
X984830Y807823D01*
X984710Y807966D01*
X984593Y808112D01*
X984480Y808261D01*
X984370Y808412D01*
X984264Y808567D01*
X984162Y808723D01*
X984064Y808883D01*
X983970Y809044D01*
X983880Y809208D01*
X983794Y809374D01*
X983712Y809542D01*
X983634Y809712D01*
X983560Y809884D01*
X983491Y810058D01*
X983425Y810233D01*
X983365Y810410D01*
X983308Y810588D01*
X983256Y810768D01*
X983208Y810948D01*
X983165Y811130D01*
X983126Y811313D01*
X983092Y811497D01*
X983062Y811682D01*
X983037Y811867D01*
X983017Y812053D01*
X983001Y812239D01*
X982989Y812426D01*
X982982Y812613D01*
X982980Y812800D01*
D17*
X990600Y812800D03*
D16*
X982980Y304800D02*
X982982Y304987D01*
X982989Y305174D01*
X983001Y305361D01*
X983017Y305547D01*
X983037Y305733D01*
X983062Y305918D01*
X983092Y306103D01*
X983126Y306287D01*
X983165Y306470D01*
X983208Y306652D01*
X983256Y306832D01*
X983308Y307012D01*
X983365Y307190D01*
X983425Y307367D01*
X983491Y307542D01*
X983560Y307716D01*
X983634Y307888D01*
X983712Y308058D01*
X983794Y308226D01*
X983880Y308392D01*
X983970Y308556D01*
X984064Y308717D01*
X984162Y308877D01*
X984264Y309033D01*
X984370Y309188D01*
X984480Y309339D01*
X984593Y309488D01*
X984710Y309634D01*
X984830Y309777D01*
X984954Y309917D01*
X985081Y310054D01*
X985212Y310188D01*
X985346Y310319D01*
X985483Y310446D01*
X985623Y310570D01*
X985766Y310690D01*
X985912Y310807D01*
X986061Y310920D01*
X986212Y311030D01*
X986367Y311136D01*
X986523Y311238D01*
X986683Y311336D01*
X986844Y311430D01*
X987008Y311520D01*
X987174Y311606D01*
X987342Y311688D01*
X987512Y311766D01*
X987684Y311840D01*
X987858Y311909D01*
X988033Y311975D01*
X988210Y312035D01*
X988388Y312092D01*
X988568Y312144D01*
X988748Y312192D01*
X988930Y312235D01*
X989113Y312274D01*
X989297Y312308D01*
X989482Y312338D01*
X989667Y312363D01*
X989853Y312383D01*
X990039Y312399D01*
X990226Y312411D01*
X990413Y312418D01*
X990600Y312420D01*
X990787Y312418D01*
X990974Y312411D01*
X991161Y312399D01*
X991347Y312383D01*
X991533Y312363D01*
X991718Y312338D01*
X991903Y312308D01*
X992087Y312274D01*
X992270Y312235D01*
X992452Y312192D01*
X992632Y312144D01*
X992812Y312092D01*
X992990Y312035D01*
X993167Y311975D01*
X993342Y311909D01*
X993516Y311840D01*
X993688Y311766D01*
X993858Y311688D01*
X994026Y311606D01*
X994192Y311520D01*
X994356Y311430D01*
X994517Y311336D01*
X994677Y311238D01*
X994833Y311136D01*
X994988Y311030D01*
X995139Y310920D01*
X995288Y310807D01*
X995434Y310690D01*
X995577Y310570D01*
X995717Y310446D01*
X995854Y310319D01*
X995988Y310188D01*
X996119Y310054D01*
X996246Y309917D01*
X996370Y309777D01*
X996490Y309634D01*
X996607Y309488D01*
X996720Y309339D01*
X996830Y309188D01*
X996936Y309033D01*
X997038Y308877D01*
X997136Y308717D01*
X997230Y308556D01*
X997320Y308392D01*
X997406Y308226D01*
X997488Y308058D01*
X997566Y307888D01*
X997640Y307716D01*
X997709Y307542D01*
X997775Y307367D01*
X997835Y307190D01*
X997892Y307012D01*
X997944Y306832D01*
X997992Y306652D01*
X998035Y306470D01*
X998074Y306287D01*
X998108Y306103D01*
X998138Y305918D01*
X998163Y305733D01*
X998183Y305547D01*
X998199Y305361D01*
X998211Y305174D01*
X998218Y304987D01*
X998220Y304800D01*
X998218Y304613D01*
X998211Y304426D01*
X998199Y304239D01*
X998183Y304053D01*
X998163Y303867D01*
X998138Y303682D01*
X998108Y303497D01*
X998074Y303313D01*
X998035Y303130D01*
X997992Y302948D01*
X997944Y302768D01*
X997892Y302588D01*
X997835Y302410D01*
X997775Y302233D01*
X997709Y302058D01*
X997640Y301884D01*
X997566Y301712D01*
X997488Y301542D01*
X997406Y301374D01*
X997320Y301208D01*
X997230Y301044D01*
X997136Y300883D01*
X997038Y300723D01*
X996936Y300567D01*
X996830Y300412D01*
X996720Y300261D01*
X996607Y300112D01*
X996490Y299966D01*
X996370Y299823D01*
X996246Y299683D01*
X996119Y299546D01*
X995988Y299412D01*
X995854Y299281D01*
X995717Y299154D01*
X995577Y299030D01*
X995434Y298910D01*
X995288Y298793D01*
X995139Y298680D01*
X994988Y298570D01*
X994833Y298464D01*
X994677Y298362D01*
X994517Y298264D01*
X994356Y298170D01*
X994192Y298080D01*
X994026Y297994D01*
X993858Y297912D01*
X993688Y297834D01*
X993516Y297760D01*
X993342Y297691D01*
X993167Y297625D01*
X992990Y297565D01*
X992812Y297508D01*
X992632Y297456D01*
X992452Y297408D01*
X992270Y297365D01*
X992087Y297326D01*
X991903Y297292D01*
X991718Y297262D01*
X991533Y297237D01*
X991347Y297217D01*
X991161Y297201D01*
X990974Y297189D01*
X990787Y297182D01*
X990600Y297180D01*
X990413Y297182D01*
X990226Y297189D01*
X990039Y297201D01*
X989853Y297217D01*
X989667Y297237D01*
X989482Y297262D01*
X989297Y297292D01*
X989113Y297326D01*
X988930Y297365D01*
X988748Y297408D01*
X988568Y297456D01*
X988388Y297508D01*
X988210Y297565D01*
X988033Y297625D01*
X987858Y297691D01*
X987684Y297760D01*
X987512Y297834D01*
X987342Y297912D01*
X987174Y297994D01*
X987008Y298080D01*
X986844Y298170D01*
X986683Y298264D01*
X986523Y298362D01*
X986367Y298464D01*
X986212Y298570D01*
X986061Y298680D01*
X985912Y298793D01*
X985766Y298910D01*
X985623Y299030D01*
X985483Y299154D01*
X985346Y299281D01*
X985212Y299412D01*
X985081Y299546D01*
X984954Y299683D01*
X984830Y299823D01*
X984710Y299966D01*
X984593Y300112D01*
X984480Y300261D01*
X984370Y300412D01*
X984264Y300567D01*
X984162Y300723D01*
X984064Y300883D01*
X983970Y301044D01*
X983880Y301208D01*
X983794Y301374D01*
X983712Y301542D01*
X983634Y301712D01*
X983560Y301884D01*
X983491Y302058D01*
X983425Y302233D01*
X983365Y302410D01*
X983308Y302588D01*
X983256Y302768D01*
X983208Y302948D01*
X983165Y303130D01*
X983126Y303313D01*
X983092Y303497D01*
X983062Y303682D01*
X983037Y303867D01*
X983017Y304053D01*
X983001Y304239D01*
X982989Y304426D01*
X982982Y304613D01*
X982980Y304800D01*
D17*
X990600Y304800D03*
D16*
X1008380Y304800D02*
X1008382Y304987D01*
X1008389Y305174D01*
X1008401Y305361D01*
X1008417Y305547D01*
X1008437Y305733D01*
X1008462Y305918D01*
X1008492Y306103D01*
X1008526Y306287D01*
X1008565Y306470D01*
X1008608Y306652D01*
X1008656Y306832D01*
X1008708Y307012D01*
X1008765Y307190D01*
X1008825Y307367D01*
X1008891Y307542D01*
X1008960Y307716D01*
X1009034Y307888D01*
X1009112Y308058D01*
X1009194Y308226D01*
X1009280Y308392D01*
X1009370Y308556D01*
X1009464Y308717D01*
X1009562Y308877D01*
X1009664Y309033D01*
X1009770Y309188D01*
X1009880Y309339D01*
X1009993Y309488D01*
X1010110Y309634D01*
X1010230Y309777D01*
X1010354Y309917D01*
X1010481Y310054D01*
X1010612Y310188D01*
X1010746Y310319D01*
X1010883Y310446D01*
X1011023Y310570D01*
X1011166Y310690D01*
X1011312Y310807D01*
X1011461Y310920D01*
X1011612Y311030D01*
X1011767Y311136D01*
X1011923Y311238D01*
X1012083Y311336D01*
X1012244Y311430D01*
X1012408Y311520D01*
X1012574Y311606D01*
X1012742Y311688D01*
X1012912Y311766D01*
X1013084Y311840D01*
X1013258Y311909D01*
X1013433Y311975D01*
X1013610Y312035D01*
X1013788Y312092D01*
X1013968Y312144D01*
X1014148Y312192D01*
X1014330Y312235D01*
X1014513Y312274D01*
X1014697Y312308D01*
X1014882Y312338D01*
X1015067Y312363D01*
X1015253Y312383D01*
X1015439Y312399D01*
X1015626Y312411D01*
X1015813Y312418D01*
X1016000Y312420D01*
X1016187Y312418D01*
X1016374Y312411D01*
X1016561Y312399D01*
X1016747Y312383D01*
X1016933Y312363D01*
X1017118Y312338D01*
X1017303Y312308D01*
X1017487Y312274D01*
X1017670Y312235D01*
X1017852Y312192D01*
X1018032Y312144D01*
X1018212Y312092D01*
X1018390Y312035D01*
X1018567Y311975D01*
X1018742Y311909D01*
X1018916Y311840D01*
X1019088Y311766D01*
X1019258Y311688D01*
X1019426Y311606D01*
X1019592Y311520D01*
X1019756Y311430D01*
X1019917Y311336D01*
X1020077Y311238D01*
X1020233Y311136D01*
X1020388Y311030D01*
X1020539Y310920D01*
X1020688Y310807D01*
X1020834Y310690D01*
X1020977Y310570D01*
X1021117Y310446D01*
X1021254Y310319D01*
X1021388Y310188D01*
X1021519Y310054D01*
X1021646Y309917D01*
X1021770Y309777D01*
X1021890Y309634D01*
X1022007Y309488D01*
X1022120Y309339D01*
X1022230Y309188D01*
X1022336Y309033D01*
X1022438Y308877D01*
X1022536Y308717D01*
X1022630Y308556D01*
X1022720Y308392D01*
X1022806Y308226D01*
X1022888Y308058D01*
X1022966Y307888D01*
X1023040Y307716D01*
X1023109Y307542D01*
X1023175Y307367D01*
X1023235Y307190D01*
X1023292Y307012D01*
X1023344Y306832D01*
X1023392Y306652D01*
X1023435Y306470D01*
X1023474Y306287D01*
X1023508Y306103D01*
X1023538Y305918D01*
X1023563Y305733D01*
X1023583Y305547D01*
X1023599Y305361D01*
X1023611Y305174D01*
X1023618Y304987D01*
X1023620Y304800D01*
X1023618Y304613D01*
X1023611Y304426D01*
X1023599Y304239D01*
X1023583Y304053D01*
X1023563Y303867D01*
X1023538Y303682D01*
X1023508Y303497D01*
X1023474Y303313D01*
X1023435Y303130D01*
X1023392Y302948D01*
X1023344Y302768D01*
X1023292Y302588D01*
X1023235Y302410D01*
X1023175Y302233D01*
X1023109Y302058D01*
X1023040Y301884D01*
X1022966Y301712D01*
X1022888Y301542D01*
X1022806Y301374D01*
X1022720Y301208D01*
X1022630Y301044D01*
X1022536Y300883D01*
X1022438Y300723D01*
X1022336Y300567D01*
X1022230Y300412D01*
X1022120Y300261D01*
X1022007Y300112D01*
X1021890Y299966D01*
X1021770Y299823D01*
X1021646Y299683D01*
X1021519Y299546D01*
X1021388Y299412D01*
X1021254Y299281D01*
X1021117Y299154D01*
X1020977Y299030D01*
X1020834Y298910D01*
X1020688Y298793D01*
X1020539Y298680D01*
X1020388Y298570D01*
X1020233Y298464D01*
X1020077Y298362D01*
X1019917Y298264D01*
X1019756Y298170D01*
X1019592Y298080D01*
X1019426Y297994D01*
X1019258Y297912D01*
X1019088Y297834D01*
X1018916Y297760D01*
X1018742Y297691D01*
X1018567Y297625D01*
X1018390Y297565D01*
X1018212Y297508D01*
X1018032Y297456D01*
X1017852Y297408D01*
X1017670Y297365D01*
X1017487Y297326D01*
X1017303Y297292D01*
X1017118Y297262D01*
X1016933Y297237D01*
X1016747Y297217D01*
X1016561Y297201D01*
X1016374Y297189D01*
X1016187Y297182D01*
X1016000Y297180D01*
X1015813Y297182D01*
X1015626Y297189D01*
X1015439Y297201D01*
X1015253Y297217D01*
X1015067Y297237D01*
X1014882Y297262D01*
X1014697Y297292D01*
X1014513Y297326D01*
X1014330Y297365D01*
X1014148Y297408D01*
X1013968Y297456D01*
X1013788Y297508D01*
X1013610Y297565D01*
X1013433Y297625D01*
X1013258Y297691D01*
X1013084Y297760D01*
X1012912Y297834D01*
X1012742Y297912D01*
X1012574Y297994D01*
X1012408Y298080D01*
X1012244Y298170D01*
X1012083Y298264D01*
X1011923Y298362D01*
X1011767Y298464D01*
X1011612Y298570D01*
X1011461Y298680D01*
X1011312Y298793D01*
X1011166Y298910D01*
X1011023Y299030D01*
X1010883Y299154D01*
X1010746Y299281D01*
X1010612Y299412D01*
X1010481Y299546D01*
X1010354Y299683D01*
X1010230Y299823D01*
X1010110Y299966D01*
X1009993Y300112D01*
X1009880Y300261D01*
X1009770Y300412D01*
X1009664Y300567D01*
X1009562Y300723D01*
X1009464Y300883D01*
X1009370Y301044D01*
X1009280Y301208D01*
X1009194Y301374D01*
X1009112Y301542D01*
X1009034Y301712D01*
X1008960Y301884D01*
X1008891Y302058D01*
X1008825Y302233D01*
X1008765Y302410D01*
X1008708Y302588D01*
X1008656Y302768D01*
X1008608Y302948D01*
X1008565Y303130D01*
X1008526Y303313D01*
X1008492Y303497D01*
X1008462Y303682D01*
X1008437Y303867D01*
X1008417Y304053D01*
X1008401Y304239D01*
X1008389Y304426D01*
X1008382Y304613D01*
X1008380Y304800D01*
D17*
X1016000Y304800D03*
D16*
X398780Y812800D02*
X398782Y812987D01*
X398789Y813174D01*
X398801Y813361D01*
X398817Y813547D01*
X398837Y813733D01*
X398862Y813918D01*
X398892Y814103D01*
X398926Y814287D01*
X398965Y814470D01*
X399008Y814652D01*
X399056Y814832D01*
X399108Y815012D01*
X399165Y815190D01*
X399225Y815367D01*
X399291Y815542D01*
X399360Y815716D01*
X399434Y815888D01*
X399512Y816058D01*
X399594Y816226D01*
X399680Y816392D01*
X399770Y816556D01*
X399864Y816717D01*
X399962Y816877D01*
X400064Y817033D01*
X400170Y817188D01*
X400280Y817339D01*
X400393Y817488D01*
X400510Y817634D01*
X400630Y817777D01*
X400754Y817917D01*
X400881Y818054D01*
X401012Y818188D01*
X401146Y818319D01*
X401283Y818446D01*
X401423Y818570D01*
X401566Y818690D01*
X401712Y818807D01*
X401861Y818920D01*
X402012Y819030D01*
X402167Y819136D01*
X402323Y819238D01*
X402483Y819336D01*
X402644Y819430D01*
X402808Y819520D01*
X402974Y819606D01*
X403142Y819688D01*
X403312Y819766D01*
X403484Y819840D01*
X403658Y819909D01*
X403833Y819975D01*
X404010Y820035D01*
X404188Y820092D01*
X404368Y820144D01*
X404548Y820192D01*
X404730Y820235D01*
X404913Y820274D01*
X405097Y820308D01*
X405282Y820338D01*
X405467Y820363D01*
X405653Y820383D01*
X405839Y820399D01*
X406026Y820411D01*
X406213Y820418D01*
X406400Y820420D01*
X406587Y820418D01*
X406774Y820411D01*
X406961Y820399D01*
X407147Y820383D01*
X407333Y820363D01*
X407518Y820338D01*
X407703Y820308D01*
X407887Y820274D01*
X408070Y820235D01*
X408252Y820192D01*
X408432Y820144D01*
X408612Y820092D01*
X408790Y820035D01*
X408967Y819975D01*
X409142Y819909D01*
X409316Y819840D01*
X409488Y819766D01*
X409658Y819688D01*
X409826Y819606D01*
X409992Y819520D01*
X410156Y819430D01*
X410317Y819336D01*
X410477Y819238D01*
X410633Y819136D01*
X410788Y819030D01*
X410939Y818920D01*
X411088Y818807D01*
X411234Y818690D01*
X411377Y818570D01*
X411517Y818446D01*
X411654Y818319D01*
X411788Y818188D01*
X411919Y818054D01*
X412046Y817917D01*
X412170Y817777D01*
X412290Y817634D01*
X412407Y817488D01*
X412520Y817339D01*
X412630Y817188D01*
X412736Y817033D01*
X412838Y816877D01*
X412936Y816717D01*
X413030Y816556D01*
X413120Y816392D01*
X413206Y816226D01*
X413288Y816058D01*
X413366Y815888D01*
X413440Y815716D01*
X413509Y815542D01*
X413575Y815367D01*
X413635Y815190D01*
X413692Y815012D01*
X413744Y814832D01*
X413792Y814652D01*
X413835Y814470D01*
X413874Y814287D01*
X413908Y814103D01*
X413938Y813918D01*
X413963Y813733D01*
X413983Y813547D01*
X413999Y813361D01*
X414011Y813174D01*
X414018Y812987D01*
X414020Y812800D01*
X414018Y812613D01*
X414011Y812426D01*
X413999Y812239D01*
X413983Y812053D01*
X413963Y811867D01*
X413938Y811682D01*
X413908Y811497D01*
X413874Y811313D01*
X413835Y811130D01*
X413792Y810948D01*
X413744Y810768D01*
X413692Y810588D01*
X413635Y810410D01*
X413575Y810233D01*
X413509Y810058D01*
X413440Y809884D01*
X413366Y809712D01*
X413288Y809542D01*
X413206Y809374D01*
X413120Y809208D01*
X413030Y809044D01*
X412936Y808883D01*
X412838Y808723D01*
X412736Y808567D01*
X412630Y808412D01*
X412520Y808261D01*
X412407Y808112D01*
X412290Y807966D01*
X412170Y807823D01*
X412046Y807683D01*
X411919Y807546D01*
X411788Y807412D01*
X411654Y807281D01*
X411517Y807154D01*
X411377Y807030D01*
X411234Y806910D01*
X411088Y806793D01*
X410939Y806680D01*
X410788Y806570D01*
X410633Y806464D01*
X410477Y806362D01*
X410317Y806264D01*
X410156Y806170D01*
X409992Y806080D01*
X409826Y805994D01*
X409658Y805912D01*
X409488Y805834D01*
X409316Y805760D01*
X409142Y805691D01*
X408967Y805625D01*
X408790Y805565D01*
X408612Y805508D01*
X408432Y805456D01*
X408252Y805408D01*
X408070Y805365D01*
X407887Y805326D01*
X407703Y805292D01*
X407518Y805262D01*
X407333Y805237D01*
X407147Y805217D01*
X406961Y805201D01*
X406774Y805189D01*
X406587Y805182D01*
X406400Y805180D01*
X406213Y805182D01*
X406026Y805189D01*
X405839Y805201D01*
X405653Y805217D01*
X405467Y805237D01*
X405282Y805262D01*
X405097Y805292D01*
X404913Y805326D01*
X404730Y805365D01*
X404548Y805408D01*
X404368Y805456D01*
X404188Y805508D01*
X404010Y805565D01*
X403833Y805625D01*
X403658Y805691D01*
X403484Y805760D01*
X403312Y805834D01*
X403142Y805912D01*
X402974Y805994D01*
X402808Y806080D01*
X402644Y806170D01*
X402483Y806264D01*
X402323Y806362D01*
X402167Y806464D01*
X402012Y806570D01*
X401861Y806680D01*
X401712Y806793D01*
X401566Y806910D01*
X401423Y807030D01*
X401283Y807154D01*
X401146Y807281D01*
X401012Y807412D01*
X400881Y807546D01*
X400754Y807683D01*
X400630Y807823D01*
X400510Y807966D01*
X400393Y808112D01*
X400280Y808261D01*
X400170Y808412D01*
X400064Y808567D01*
X399962Y808723D01*
X399864Y808883D01*
X399770Y809044D01*
X399680Y809208D01*
X399594Y809374D01*
X399512Y809542D01*
X399434Y809712D01*
X399360Y809884D01*
X399291Y810058D01*
X399225Y810233D01*
X399165Y810410D01*
X399108Y810588D01*
X399056Y810768D01*
X399008Y810948D01*
X398965Y811130D01*
X398926Y811313D01*
X398892Y811497D01*
X398862Y811682D01*
X398837Y811867D01*
X398817Y812053D01*
X398801Y812239D01*
X398789Y812426D01*
X398782Y812613D01*
X398780Y812800D01*
D17*
X406400Y812800D03*
D16*
X1008380Y812800D02*
X1008382Y812987D01*
X1008389Y813174D01*
X1008401Y813361D01*
X1008417Y813547D01*
X1008437Y813733D01*
X1008462Y813918D01*
X1008492Y814103D01*
X1008526Y814287D01*
X1008565Y814470D01*
X1008608Y814652D01*
X1008656Y814832D01*
X1008708Y815012D01*
X1008765Y815190D01*
X1008825Y815367D01*
X1008891Y815542D01*
X1008960Y815716D01*
X1009034Y815888D01*
X1009112Y816058D01*
X1009194Y816226D01*
X1009280Y816392D01*
X1009370Y816556D01*
X1009464Y816717D01*
X1009562Y816877D01*
X1009664Y817033D01*
X1009770Y817188D01*
X1009880Y817339D01*
X1009993Y817488D01*
X1010110Y817634D01*
X1010230Y817777D01*
X1010354Y817917D01*
X1010481Y818054D01*
X1010612Y818188D01*
X1010746Y818319D01*
X1010883Y818446D01*
X1011023Y818570D01*
X1011166Y818690D01*
X1011312Y818807D01*
X1011461Y818920D01*
X1011612Y819030D01*
X1011767Y819136D01*
X1011923Y819238D01*
X1012083Y819336D01*
X1012244Y819430D01*
X1012408Y819520D01*
X1012574Y819606D01*
X1012742Y819688D01*
X1012912Y819766D01*
X1013084Y819840D01*
X1013258Y819909D01*
X1013433Y819975D01*
X1013610Y820035D01*
X1013788Y820092D01*
X1013968Y820144D01*
X1014148Y820192D01*
X1014330Y820235D01*
X1014513Y820274D01*
X1014697Y820308D01*
X1014882Y820338D01*
X1015067Y820363D01*
X1015253Y820383D01*
X1015439Y820399D01*
X1015626Y820411D01*
X1015813Y820418D01*
X1016000Y820420D01*
X1016187Y820418D01*
X1016374Y820411D01*
X1016561Y820399D01*
X1016747Y820383D01*
X1016933Y820363D01*
X1017118Y820338D01*
X1017303Y820308D01*
X1017487Y820274D01*
X1017670Y820235D01*
X1017852Y820192D01*
X1018032Y820144D01*
X1018212Y820092D01*
X1018390Y820035D01*
X1018567Y819975D01*
X1018742Y819909D01*
X1018916Y819840D01*
X1019088Y819766D01*
X1019258Y819688D01*
X1019426Y819606D01*
X1019592Y819520D01*
X1019756Y819430D01*
X1019917Y819336D01*
X1020077Y819238D01*
X1020233Y819136D01*
X1020388Y819030D01*
X1020539Y818920D01*
X1020688Y818807D01*
X1020834Y818690D01*
X1020977Y818570D01*
X1021117Y818446D01*
X1021254Y818319D01*
X1021388Y818188D01*
X1021519Y818054D01*
X1021646Y817917D01*
X1021770Y817777D01*
X1021890Y817634D01*
X1022007Y817488D01*
X1022120Y817339D01*
X1022230Y817188D01*
X1022336Y817033D01*
X1022438Y816877D01*
X1022536Y816717D01*
X1022630Y816556D01*
X1022720Y816392D01*
X1022806Y816226D01*
X1022888Y816058D01*
X1022966Y815888D01*
X1023040Y815716D01*
X1023109Y815542D01*
X1023175Y815367D01*
X1023235Y815190D01*
X1023292Y815012D01*
X1023344Y814832D01*
X1023392Y814652D01*
X1023435Y814470D01*
X1023474Y814287D01*
X1023508Y814103D01*
X1023538Y813918D01*
X1023563Y813733D01*
X1023583Y813547D01*
X1023599Y813361D01*
X1023611Y813174D01*
X1023618Y812987D01*
X1023620Y812800D01*
X1023618Y812613D01*
X1023611Y812426D01*
X1023599Y812239D01*
X1023583Y812053D01*
X1023563Y811867D01*
X1023538Y811682D01*
X1023508Y811497D01*
X1023474Y811313D01*
X1023435Y811130D01*
X1023392Y810948D01*
X1023344Y810768D01*
X1023292Y810588D01*
X1023235Y810410D01*
X1023175Y810233D01*
X1023109Y810058D01*
X1023040Y809884D01*
X1022966Y809712D01*
X1022888Y809542D01*
X1022806Y809374D01*
X1022720Y809208D01*
X1022630Y809044D01*
X1022536Y808883D01*
X1022438Y808723D01*
X1022336Y808567D01*
X1022230Y808412D01*
X1022120Y808261D01*
X1022007Y808112D01*
X1021890Y807966D01*
X1021770Y807823D01*
X1021646Y807683D01*
X1021519Y807546D01*
X1021388Y807412D01*
X1021254Y807281D01*
X1021117Y807154D01*
X1020977Y807030D01*
X1020834Y806910D01*
X1020688Y806793D01*
X1020539Y806680D01*
X1020388Y806570D01*
X1020233Y806464D01*
X1020077Y806362D01*
X1019917Y806264D01*
X1019756Y806170D01*
X1019592Y806080D01*
X1019426Y805994D01*
X1019258Y805912D01*
X1019088Y805834D01*
X1018916Y805760D01*
X1018742Y805691D01*
X1018567Y805625D01*
X1018390Y805565D01*
X1018212Y805508D01*
X1018032Y805456D01*
X1017852Y805408D01*
X1017670Y805365D01*
X1017487Y805326D01*
X1017303Y805292D01*
X1017118Y805262D01*
X1016933Y805237D01*
X1016747Y805217D01*
X1016561Y805201D01*
X1016374Y805189D01*
X1016187Y805182D01*
X1016000Y805180D01*
X1015813Y805182D01*
X1015626Y805189D01*
X1015439Y805201D01*
X1015253Y805217D01*
X1015067Y805237D01*
X1014882Y805262D01*
X1014697Y805292D01*
X1014513Y805326D01*
X1014330Y805365D01*
X1014148Y805408D01*
X1013968Y805456D01*
X1013788Y805508D01*
X1013610Y805565D01*
X1013433Y805625D01*
X1013258Y805691D01*
X1013084Y805760D01*
X1012912Y805834D01*
X1012742Y805912D01*
X1012574Y805994D01*
X1012408Y806080D01*
X1012244Y806170D01*
X1012083Y806264D01*
X1011923Y806362D01*
X1011767Y806464D01*
X1011612Y806570D01*
X1011461Y806680D01*
X1011312Y806793D01*
X1011166Y806910D01*
X1011023Y807030D01*
X1010883Y807154D01*
X1010746Y807281D01*
X1010612Y807412D01*
X1010481Y807546D01*
X1010354Y807683D01*
X1010230Y807823D01*
X1010110Y807966D01*
X1009993Y808112D01*
X1009880Y808261D01*
X1009770Y808412D01*
X1009664Y808567D01*
X1009562Y808723D01*
X1009464Y808883D01*
X1009370Y809044D01*
X1009280Y809208D01*
X1009194Y809374D01*
X1009112Y809542D01*
X1009034Y809712D01*
X1008960Y809884D01*
X1008891Y810058D01*
X1008825Y810233D01*
X1008765Y810410D01*
X1008708Y810588D01*
X1008656Y810768D01*
X1008608Y810948D01*
X1008565Y811130D01*
X1008526Y811313D01*
X1008492Y811497D01*
X1008462Y811682D01*
X1008437Y811867D01*
X1008417Y812053D01*
X1008401Y812239D01*
X1008389Y812426D01*
X1008382Y812613D01*
X1008380Y812800D01*
D17*
X1016000Y812800D03*
D16*
X373380Y812800D02*
X373382Y812987D01*
X373389Y813174D01*
X373401Y813361D01*
X373417Y813547D01*
X373437Y813733D01*
X373462Y813918D01*
X373492Y814103D01*
X373526Y814287D01*
X373565Y814470D01*
X373608Y814652D01*
X373656Y814832D01*
X373708Y815012D01*
X373765Y815190D01*
X373825Y815367D01*
X373891Y815542D01*
X373960Y815716D01*
X374034Y815888D01*
X374112Y816058D01*
X374194Y816226D01*
X374280Y816392D01*
X374370Y816556D01*
X374464Y816717D01*
X374562Y816877D01*
X374664Y817033D01*
X374770Y817188D01*
X374880Y817339D01*
X374993Y817488D01*
X375110Y817634D01*
X375230Y817777D01*
X375354Y817917D01*
X375481Y818054D01*
X375612Y818188D01*
X375746Y818319D01*
X375883Y818446D01*
X376023Y818570D01*
X376166Y818690D01*
X376312Y818807D01*
X376461Y818920D01*
X376612Y819030D01*
X376767Y819136D01*
X376923Y819238D01*
X377083Y819336D01*
X377244Y819430D01*
X377408Y819520D01*
X377574Y819606D01*
X377742Y819688D01*
X377912Y819766D01*
X378084Y819840D01*
X378258Y819909D01*
X378433Y819975D01*
X378610Y820035D01*
X378788Y820092D01*
X378968Y820144D01*
X379148Y820192D01*
X379330Y820235D01*
X379513Y820274D01*
X379697Y820308D01*
X379882Y820338D01*
X380067Y820363D01*
X380253Y820383D01*
X380439Y820399D01*
X380626Y820411D01*
X380813Y820418D01*
X381000Y820420D01*
X381187Y820418D01*
X381374Y820411D01*
X381561Y820399D01*
X381747Y820383D01*
X381933Y820363D01*
X382118Y820338D01*
X382303Y820308D01*
X382487Y820274D01*
X382670Y820235D01*
X382852Y820192D01*
X383032Y820144D01*
X383212Y820092D01*
X383390Y820035D01*
X383567Y819975D01*
X383742Y819909D01*
X383916Y819840D01*
X384088Y819766D01*
X384258Y819688D01*
X384426Y819606D01*
X384592Y819520D01*
X384756Y819430D01*
X384917Y819336D01*
X385077Y819238D01*
X385233Y819136D01*
X385388Y819030D01*
X385539Y818920D01*
X385688Y818807D01*
X385834Y818690D01*
X385977Y818570D01*
X386117Y818446D01*
X386254Y818319D01*
X386388Y818188D01*
X386519Y818054D01*
X386646Y817917D01*
X386770Y817777D01*
X386890Y817634D01*
X387007Y817488D01*
X387120Y817339D01*
X387230Y817188D01*
X387336Y817033D01*
X387438Y816877D01*
X387536Y816717D01*
X387630Y816556D01*
X387720Y816392D01*
X387806Y816226D01*
X387888Y816058D01*
X387966Y815888D01*
X388040Y815716D01*
X388109Y815542D01*
X388175Y815367D01*
X388235Y815190D01*
X388292Y815012D01*
X388344Y814832D01*
X388392Y814652D01*
X388435Y814470D01*
X388474Y814287D01*
X388508Y814103D01*
X388538Y813918D01*
X388563Y813733D01*
X388583Y813547D01*
X388599Y813361D01*
X388611Y813174D01*
X388618Y812987D01*
X388620Y812800D01*
X388618Y812613D01*
X388611Y812426D01*
X388599Y812239D01*
X388583Y812053D01*
X388563Y811867D01*
X388538Y811682D01*
X388508Y811497D01*
X388474Y811313D01*
X388435Y811130D01*
X388392Y810948D01*
X388344Y810768D01*
X388292Y810588D01*
X388235Y810410D01*
X388175Y810233D01*
X388109Y810058D01*
X388040Y809884D01*
X387966Y809712D01*
X387888Y809542D01*
X387806Y809374D01*
X387720Y809208D01*
X387630Y809044D01*
X387536Y808883D01*
X387438Y808723D01*
X387336Y808567D01*
X387230Y808412D01*
X387120Y808261D01*
X387007Y808112D01*
X386890Y807966D01*
X386770Y807823D01*
X386646Y807683D01*
X386519Y807546D01*
X386388Y807412D01*
X386254Y807281D01*
X386117Y807154D01*
X385977Y807030D01*
X385834Y806910D01*
X385688Y806793D01*
X385539Y806680D01*
X385388Y806570D01*
X385233Y806464D01*
X385077Y806362D01*
X384917Y806264D01*
X384756Y806170D01*
X384592Y806080D01*
X384426Y805994D01*
X384258Y805912D01*
X384088Y805834D01*
X383916Y805760D01*
X383742Y805691D01*
X383567Y805625D01*
X383390Y805565D01*
X383212Y805508D01*
X383032Y805456D01*
X382852Y805408D01*
X382670Y805365D01*
X382487Y805326D01*
X382303Y805292D01*
X382118Y805262D01*
X381933Y805237D01*
X381747Y805217D01*
X381561Y805201D01*
X381374Y805189D01*
X381187Y805182D01*
X381000Y805180D01*
X380813Y805182D01*
X380626Y805189D01*
X380439Y805201D01*
X380253Y805217D01*
X380067Y805237D01*
X379882Y805262D01*
X379697Y805292D01*
X379513Y805326D01*
X379330Y805365D01*
X379148Y805408D01*
X378968Y805456D01*
X378788Y805508D01*
X378610Y805565D01*
X378433Y805625D01*
X378258Y805691D01*
X378084Y805760D01*
X377912Y805834D01*
X377742Y805912D01*
X377574Y805994D01*
X377408Y806080D01*
X377244Y806170D01*
X377083Y806264D01*
X376923Y806362D01*
X376767Y806464D01*
X376612Y806570D01*
X376461Y806680D01*
X376312Y806793D01*
X376166Y806910D01*
X376023Y807030D01*
X375883Y807154D01*
X375746Y807281D01*
X375612Y807412D01*
X375481Y807546D01*
X375354Y807683D01*
X375230Y807823D01*
X375110Y807966D01*
X374993Y808112D01*
X374880Y808261D01*
X374770Y808412D01*
X374664Y808567D01*
X374562Y808723D01*
X374464Y808883D01*
X374370Y809044D01*
X374280Y809208D01*
X374194Y809374D01*
X374112Y809542D01*
X374034Y809712D01*
X373960Y809884D01*
X373891Y810058D01*
X373825Y810233D01*
X373765Y810410D01*
X373708Y810588D01*
X373656Y810768D01*
X373608Y810948D01*
X373565Y811130D01*
X373526Y811313D01*
X373492Y811497D01*
X373462Y811682D01*
X373437Y811867D01*
X373417Y812053D01*
X373401Y812239D01*
X373389Y812426D01*
X373382Y812613D01*
X373380Y812800D01*
D17*
X381000Y812800D03*
D18*
X330200Y330200D03*
X1066800Y317500D03*
X1066800Y812800D03*
X330200Y812800D03*
D19*
X524510Y330200D03*
X542290Y330200D03*
D20*
X558800Y330200D03*
X508000Y330200D03*
M02*
