G04 EAGLE Gerber RS-274X export*
G75*
%MOMM*%
%FSLAX34Y34*%
%LPD*%
%INSoldermask Bottom*%
%IPPOS*%
%AMOC8*
5,1,8,0,0,1.08239X$1,22.5*%
G01*
%ADD10C,1.733200*%
%ADD11R,1.854200X1.854200*%
%ADD12C,1.854200*%
%ADD13P,1.869504X8X202.500000*%
%ADD14R,1.727200X1.727200*%
%ADD15P,1.869504X8X356.700000*%
%ADD16C,4.648200*%
%ADD17C,0.959600*%


D10*
X508000Y571500D03*
X508000Y546100D03*
X508000Y520700D03*
X508000Y596900D03*
D11*
X914400Y762000D03*
D12*
X939800Y762000D03*
X965200Y762000D03*
D11*
X812800Y762000D03*
D12*
X838200Y762000D03*
X863600Y762000D03*
D11*
X711200Y762000D03*
D12*
X736600Y762000D03*
X762000Y762000D03*
D11*
X609600Y762000D03*
D12*
X635000Y762000D03*
X660400Y762000D03*
D13*
X982300Y663200D03*
X956900Y663200D03*
X931500Y663200D03*
X906100Y663200D03*
X702900Y663200D03*
X728300Y663200D03*
D14*
X1033100Y434600D03*
D13*
X1007700Y434600D03*
X779100Y663200D03*
X753700Y663200D03*
X829900Y663200D03*
X804500Y663200D03*
X982300Y434600D03*
X956900Y434600D03*
X880700Y663200D03*
D15*
X855300Y663200D03*
D11*
X711200Y330200D03*
D12*
X736600Y330200D03*
X762000Y330200D03*
D11*
X609600Y330200D03*
D12*
X635000Y330200D03*
X660400Y330200D03*
D11*
X914400Y330200D03*
D12*
X939800Y330200D03*
X965200Y330200D03*
D11*
X812800Y330200D03*
D12*
X838200Y330200D03*
X863600Y330200D03*
D16*
X330200Y330200D03*
X1066800Y317500D03*
X1066800Y812800D03*
X330200Y812800D03*
D17*
X558800Y330200D03*
X508000Y330200D03*
M02*
