M48
;GenerationSoftware,Autodesk,EAGLE,9.6.2*%
;CreationDate,2021-12-02T17:01:41Z*%
FMAT,2
ICI,OFF
METRIC,TZ,000.000
T4C0.350
T3C0.889
T2C1.020
T1C3.175
%
G90
M71
T1
X33020Y81280
X106680Y81280
X106680Y31750
X33020Y33020
T2
X50800Y57150
X50800Y54610
X50800Y52070
X50800Y59690
T3
X96520Y76200
X81280Y76200
X83820Y76200
X86360Y76200
X71120Y76200
X73660Y76200
X76200Y76200
X60960Y76200
X63500Y76200
X66040Y76200
X98230Y66320
X95690Y66320
X93150Y66320
X90610Y66320
X70290Y66320
X72830Y66320
X103310Y43460
X100770Y43460
X77910Y66320
X75370Y66320
X82990Y66320
X80450Y66320
X98230Y43460
X95690Y43460
X88070Y66320
X85530Y66320
X71120Y33020
X73660Y33020
X76200Y33020
X60960Y33020
X63500Y33020
X66040Y33020
X91440Y33020
X93980Y33020
X96520Y33020
X81280Y33020
X83820Y33020
X86360Y33020
X93980Y76200
X91440Y76200
T4
X50800Y33020
X55880Y33020
M30